<svg width="32" height="32" viewBox="0 0 32 32" fill="none" xmlns="http://www.w3.org/2000/svg">
<path d="M32 28C32 30.2091 30.2091 32 28 32H4C1.79086 32 4.0266e-09 30.2091 0 28V23H3V28L3.00488 28.1025C3.05278 28.573 3.42703 28.9472 3.89746 28.9951L4 29H28L28.1025 28.9951C28.573 28.9472 28.9472 28.573 28.9951 28.1025L29 28V23H32V28Z" fill="#F0F0F0"/>
<path d="M17.5458 1.49999L17.5458 18.8789L24.5311 11.8935C25.1169 11.3078 26.0664 11.3078 26.6522 11.8935C27.238 12.4793 27.238 13.4289 26.6522 14.0146L17.1063 23.5605C16.5205 24.1463 15.571 24.1463 14.9852 23.5605L5.43932 14.0146C4.85354 13.4289 4.85354 12.4793 5.43932 11.8935C6.02511 11.3078 6.97463 11.3078 7.56042 11.8935L14.5458 18.8789L14.5458 1.49999C14.5458 0.671562 15.2173 -1.05748e-05 16.0458 -1.05024e-05C16.8742 -1.043e-05 17.5458 0.671562 17.5458 1.49999Z" fill="#F0F0F0"/>
</svg>
