<svg width="32" height="32" viewBox="0 0 32 32" fill="none" xmlns="http://www.w3.org/2000/svg">
<path d="M4.18943 9.12256H27.7523C27.7523 9.89133 27.7734 10.6448 27.7523 11.3962C27.6241 15.2401 27.4961 19.084 27.368 22.9278C27.2834 25.4584 27.1988 27.9889 27.1142 30.5195C27.0892 31.2671 26.5377 31.7226 25.642 31.7226C19.2202 31.7226 12.799 31.7226 6.37847 31.7226C5.46363 31.7226 4.92932 31.2671 4.90241 30.4887C4.66665 23.4544 4.43093 16.4201 4.19518 9.38585C4.18749 9.30129 4.18943 9.2225 4.18943 9.12256ZM12.8246 18.8629V16.3644C12.8246 15.4938 12.8246 14.6231 12.8246 13.7525C12.8181 13.5877 12.7786 13.4259 12.7084 13.2766C12.6382 13.1273 12.5388 12.9936 12.4161 12.8834C12.2933 12.7732 12.1497 12.6888 11.9938 12.635C11.8378 12.5813 11.6727 12.5593 11.5081 12.5705C11.3286 12.5522 11.1472 12.5727 10.9763 12.6305C10.8053 12.6884 10.6488 12.7822 10.5172 12.9057C10.3857 13.0293 10.2822 13.1796 10.2138 13.3466C10.1453 13.5135 10.1135 13.6933 10.1205 13.8736C10.1205 17.2178 10.1205 20.5613 10.1205 23.9042C10.1186 24.009 10.1257 24.1138 10.1416 24.2174C10.182 24.4482 10.2918 24.6612 10.4562 24.8281C10.6207 24.9949 10.8321 25.1078 11.0622 25.1515C11.2542 25.2233 11.4603 25.249 11.664 25.2263C11.8677 25.2036 12.0632 25.1332 12.2346 25.0209C12.406 24.9086 12.5486 24.7575 12.6508 24.5799C12.753 24.4022 12.8118 24.203 12.8227 23.9984C12.8303 22.2763 12.8246 20.5696 12.8246 18.8629ZM19.1785 18.8629C19.1785 20.5004 19.1785 22.1373 19.1785 23.7735C19.1776 23.9512 19.2117 24.1273 19.2789 24.2918C19.3461 24.4563 19.4451 24.6059 19.5701 24.7322C19.6951 24.8585 19.8438 24.9589 20.0076 25.0277C20.1714 25.0965 20.3471 25.1324 20.5248 25.1333C20.7025 25.1341 20.8787 25.1 21.0432 25.0328C21.2077 24.9657 21.3573 24.8667 21.4836 24.7417C21.6098 24.6167 21.7102 24.468 21.7791 24.3042C21.8479 24.1404 21.8837 23.9646 21.8846 23.7869C21.8846 20.5132 21.8846 17.2396 21.8846 13.9659C21.8873 13.8265 21.8803 13.6871 21.8635 13.5488C21.8092 13.2863 21.6701 13.0488 21.4676 12.8731C21.2651 12.6974 21.0106 12.5931 20.743 12.5763C20.5593 12.5328 20.3682 12.5308 20.1837 12.5704C19.9991 12.61 19.8258 12.6903 19.6761 12.8054C19.5265 12.9204 19.4043 13.0673 19.3186 13.2355C19.2328 13.4036 19.1857 13.5888 19.1805 13.7775C19.1728 15.4746 19.1785 17.1697 19.1785 18.8629Z" fill="#F0F0F0"/>
<path d="M17.3624 2.61669H26.3955C27.5045 2.61669 28.033 3.08181 27.9984 4.01779C27.9638 4.95378 27.9292 5.84747 27.8946 6.78345H4.11451C4.1049 6.66621 4.08762 6.55285 4.08378 6.43945C4.05495 5.62647 4.02414 4.81541 4.00108 4.00243C3.97289 3.07862 4.49894 2.61669 5.57907 2.61669H14.6429C14.6429 2.18234 14.6218 1.78069 14.6429 1.379C14.6712 1.10773 14.7914 0.854294 14.9837 0.660917C15.176 0.467539 15.4289 0.345872 15.7 0.316155C15.9771 0.249796 16.2679 0.269403 16.5337 0.372403C16.7994 0.475404 17.0275 0.656948 17.1875 0.892771C17.2884 1.10244 17.3441 1.33096 17.3509 1.56352C17.3836 1.90563 17.3624 2.24192 17.3624 2.61669Z" fill="#F0F0F0"/>
</svg>
