<svg width="32" height="32" viewBox="0 0 32 32" fill="none" xmlns="http://www.w3.org/2000/svg">
<path d="M32 28C32 30.2091 30.2091 32 28 32H4C1.79086 32 4.0266e-09 30.2091 0 28V23H3V28L3.00488 28.1025C3.05278 28.573 3.42703 28.9472 3.89746 28.9951L4 29H28L28.1025 28.9951C28.573 28.9472 28.9472 28.573 28.9951 28.1025L29 28V23H32V28Z" fill="#F0F0F0"/>
<path d="M14.5458 22.4999V5.12098L7.56043 12.1063C6.97465 12.6921 6.02513 12.6921 5.43934 12.1063C4.85355 11.5205 4.85355 10.571 5.43934 9.98524L14.9852 0.43934C15.571 -0.146447 16.5205 -0.146447 17.1063 0.43934L26.6522 9.98524C27.238 10.571 27.238 11.5205 26.6522 12.1063C26.0664 12.6921 25.1169 12.6921 24.5311 12.1063L17.5458 5.12098V22.4999C17.5458 23.3283 16.8742 23.9999 16.0458 23.9999C15.2174 23.9999 14.5458 23.3283 14.5458 22.4999Z" fill="#F0F0F0"/>
</svg>
