<svg width="220" height="34" viewBox="0 0 220 34" fill="none" xmlns="http://www.w3.org/2000/svg">
<path d="M25 1C29.4183 1 33 4.58172 33 9V25C33 29.4183 29.4183 33 25 33H9C4.58172 33 1 29.4183 1 25V9C1 4.58172 4.58172 1 9 1H25ZM10.5 7C9.65572 7 9.01624 7.3402 9.5791 7.68066C10.1435 8.02126 22.0516 9.53327 22.333 11.2295C22.7935 14.0086 14.0883 14.1337 9.13477 16.5332C7.02635 17.5545 5.7578 18.916 6.03906 20.6182C6.2782 22.0646 7.16949 24.1233 11.3594 25.0449C14.4549 25.7258 23.0136 26.3329 25.5469 26.333C28.0797 26.333 27.8627 22.321 25.2529 21.9805C22.6431 21.64 11.2814 21.5428 11 19.5C10.7933 18 14.2457 17.8832 21 15.5C24.5 14.265 26.0198 12.1072 24.0498 10.0645C21.9129 7.84882 12.2118 7 10.5 7Z" fill="#F0F0F0"/>
<path d="M1 9H0.5H1ZM10.5 7L10.5 6.5H10.5V7ZM9.5791 7.68066L9.32032 8.10849L9.32075 8.10875L9.5791 7.68066ZM22.333 11.2295L22.8263 11.1478L22.8263 11.1477L22.333 11.2295ZM9.13477 16.5332L8.91679 16.0832L8.91679 16.0832L9.13477 16.5332ZM6.03906 20.6182L5.54575 20.6997L5.54576 20.6997L6.03906 20.6182ZM11.3594 25.0449L11.252 25.5332L11.252 25.5332L11.3594 25.0449ZM25.5469 26.333L25.5469 26.833H25.5469V26.333ZM25.2529 21.9805L25.3176 21.4847L25.3176 21.4847L25.2529 21.9805ZM11 19.5L10.5047 19.5682L10.5047 19.5682L11 19.5ZM21 15.5L21.1664 15.9715L21.1664 15.9715L21 15.5ZM24.0498 10.0645L24.4097 9.71737L24.4097 9.71735L24.0498 10.0645ZM25 1V1.5C29.1421 1.5 32.5 4.85786 32.5 9H33H33.5C33.5 4.30558 29.6944 0.5 25 0.5V1ZM33 9H32.5V25H33H33.5V9H33ZM33 25H32.5C32.5 29.1421 29.1421 32.5 25 32.5V33V33.5C29.6944 33.5 33.5 29.6944 33.5 25H33ZM25 33V32.5H9V33V33.5H25V33ZM9 33V32.5C4.85786 32.5 1.5 29.1421 1.5 25H1H0.5C0.5 29.6944 4.30558 33.5 9 33.5V33ZM1 25H1.5V9H1H0.5V25H1ZM1 9H1.5C1.5 4.85786 4.85786 1.5 9 1.5V1V0.5C4.30558 0.5 0.5 4.30558 0.5 9H1ZM9 1V1.5H25V1V0.5H9V1ZM10.5 7V6.5C10.0385 6.5 9.55225 6.58874 9.23813 6.79425C9.08812 6.8924 8.84145 7.11285 8.86822 7.46824C8.89322 7.80008 9.14408 8.00188 9.32032 8.10849L9.5791 7.68066L9.83788 7.25284C9.7327 7.18922 9.85242 7.22082 9.8654 7.39312C9.88015 7.58897 9.74058 7.66053 9.78562 7.63107C9.8133 7.61295 9.89013 7.57705 10.0278 7.5469C10.1589 7.51817 10.321 7.5 10.5 7.5V7ZM9.5791 7.68066L9.32075 8.10875C9.38909 8.14999 9.46273 8.17592 9.50784 8.19081C9.56205 8.2087 9.62367 8.22591 9.68857 8.24247C9.81881 8.27572 9.98524 8.31218 10.178 8.35136C10.5646 8.42991 11.0827 8.52451 11.6818 8.63241C12.8843 8.84899 14.4276 9.12171 15.9616 9.43651C17.4991 9.75201 19.008 10.106 20.1437 10.482C20.7141 10.6708 21.1671 10.8577 21.4772 11.0369C21.6323 11.1265 21.7335 11.204 21.7935 11.2648C21.8552 11.3274 21.8451 11.3435 21.8397 11.3113L22.333 11.2295L22.8263 11.1477C22.7857 10.9034 22.6496 10.7089 22.5057 10.5629C22.3601 10.4151 22.176 10.2858 21.9775 10.171C21.5803 9.94152 21.0524 9.72939 20.458 9.53262C19.2642 9.1374 17.708 8.77403 16.1627 8.45692C14.614 8.13912 13.0568 7.86396 11.859 7.64824C11.258 7.53999 10.751 7.44734 10.3772 7.37138C10.1898 7.33331 10.0423 7.3007 9.93592 7.27355C9.88253 7.25992 9.84521 7.2491 9.82125 7.24119C9.78818 7.23027 9.80439 7.23263 9.83745 7.25258L9.5791 7.68066ZM22.333 11.2295L21.8397 11.3112C21.8734 11.5146 21.829 11.685 21.6999 11.8587C21.5587 12.0488 21.3096 12.2486 20.9272 12.4516C20.1595 12.8592 19.0158 13.1984 17.6439 13.5384C14.9583 14.204 11.4558 14.8533 8.91679 16.0832L9.13477 16.5332L9.35274 16.9832C11.7673 15.8136 15.0942 15.2006 17.8844 14.509C19.2505 14.1705 20.5063 13.8073 21.3961 13.3348C21.8425 13.0978 22.2366 12.8132 22.5026 12.4551C22.7808 12.0806 22.9077 11.6392 22.8263 11.1478L22.333 11.2295ZM9.13477 16.5332L8.91679 16.0832C6.77549 17.1205 5.20527 18.6391 5.54575 20.6997L6.03906 20.6182L6.53237 20.5367C6.31033 19.1929 7.27722 17.9886 9.35274 16.9832L9.13477 16.5332ZM6.03906 20.6182L5.54576 20.6997C5.67621 21.4888 5.99012 22.4695 6.85659 23.3742C7.71957 24.2752 9.08913 25.0575 11.252 25.5332L11.3594 25.0449L11.4668 24.5566C9.43973 24.1107 8.2687 23.4028 7.57878 22.6825C6.89235 21.9658 6.64105 21.194 6.53237 20.5366L6.03906 20.6182ZM11.3594 25.0449L11.252 25.5332C12.8369 25.8819 15.7823 26.2059 18.6225 26.4425C21.4683 26.6797 24.2584 26.833 25.5469 26.833L25.5469 26.333L25.5469 25.833C24.302 25.833 21.5461 25.6827 18.7055 25.446C15.8591 25.2088 12.9774 24.8889 11.4668 24.5566L11.3594 25.0449ZM25.5469 26.333V26.833C26.3265 26.833 26.9372 26.517 27.332 26.0067C27.7157 25.5106 27.8652 24.8717 27.8274 24.2539C27.7525 23.0266 26.9128 21.6928 25.3176 21.4847L25.2529 21.9805L25.1882 22.4763C26.2028 22.6086 26.7765 23.4511 26.8293 24.3149C26.8554 24.7427 26.7474 25.1281 26.541 25.3949C26.3456 25.6475 26.0337 25.833 25.5469 25.833V26.333ZM25.2529 21.9805L25.3176 21.4847C24.6433 21.3967 23.4194 21.3256 21.9954 21.2375C20.5586 21.1486 18.8936 21.0411 17.3034 20.8811C15.708 20.7206 14.212 20.5092 13.1061 20.218C12.5503 20.0716 12.1231 19.9125 11.8371 19.7466C11.5334 19.5704 11.4981 19.452 11.4953 19.4318L11 19.5L10.5047 19.5682C10.5723 20.0587 10.9536 20.3902 11.3353 20.6116C11.7347 20.8433 12.2616 21.0297 12.8514 21.185C14.0365 21.4971 15.5968 21.7144 17.2033 21.8761C18.8149 22.0383 20.4973 22.1467 21.9336 22.2356C23.3827 22.3253 24.5576 22.394 25.1882 22.4763L25.2529 21.9805ZM11 19.5L11.4953 19.4318C11.4837 19.3472 11.4976 19.2947 11.5258 19.2461C11.5605 19.1864 11.6359 19.1015 11.7973 18.997C12.1313 18.7807 12.6908 18.568 13.536 18.3093C15.1834 17.8052 17.7788 17.1668 21.1664 15.9715L21 15.5L20.8336 15.0285C17.4669 16.2164 14.959 16.8281 13.2433 17.3531C12.4069 17.6091 11.72 17.8557 11.2537 18.1576C11.0149 18.3123 10.8018 18.5013 10.6608 18.7443C10.5134 18.9985 10.4647 19.2778 10.5047 19.5682L11 19.5ZM21 15.5L21.1664 15.9715C22.9582 15.3393 24.3447 14.4394 25.0046 13.343C25.3421 12.7821 25.491 12.1648 25.3905 11.5244C25.2909 10.8894 24.954 10.2818 24.4097 9.71737L24.0498 10.0645L23.6899 10.4115C24.1306 10.8685 24.3425 11.2966 24.4026 11.6794C24.4618 12.0567 24.3814 12.439 24.1477 12.8273C23.6652 13.6293 22.5418 14.4258 20.8336 15.0285L21 15.5ZM24.0498 10.0645L24.4097 9.71735C23.7813 9.0658 22.6663 8.56753 21.4226 8.17419C20.1549 7.77324 18.6633 7.45483 17.1985 7.2083C14.2738 6.71606 11.3916 6.5 10.5 6.5L10.5 7L10.5 7.5C11.3202 7.5 14.1445 7.70835 17.0325 8.19443C18.4741 8.43706 19.9153 8.74629 21.1211 9.12764C22.3509 9.5166 23.2499 9.95529 23.6899 10.4116L24.0498 10.0645Z" fill="#F0F0F0"/>
<path d="M48.76 2.864L52.216 3.824C51.7253 5.63733 51.128 7.46133 50.424 9.296C49.72 11.1307 48.9413 12.8693 48.088 14.512C47.2347 16.1547 46.328 17.6053 45.368 18.864C45.2827 18.544 45.1333 18.128 44.92 17.616C44.728 17.0827 44.5147 16.5493 44.28 16.016C44.0453 15.4827 43.832 15.0453 43.64 14.704C44.728 13.232 45.7093 11.4507 46.584 9.36C47.48 7.248 48.2053 5.08267 48.76 2.864ZM46.84 12.144L50.136 8.848L50.168 8.88V32.816H46.84V12.144ZM63.896 3.056H67.032V28.368H63.896V3.056ZM59.128 9.392H74.072V12.176H59.128V9.392ZM59.544 22.448H73.08V25.424H59.544V22.448ZM60.216 18.064H72.248V20.944H60.216V18.064ZM51.96 4.848H57.08V8.08H51.96V4.848ZM53.72 19.44C54.2533 21.488 54.9467 23.152 55.8 24.432C56.6747 25.6907 57.6667 26.6613 58.776 27.344C59.8853 28.0053 61.1013 28.4533 62.424 28.688C63.768 28.9227 65.1867 29.04 66.68 29.04C67.0213 29.04 67.512 29.04 68.152 29.04C68.792 29.04 69.496 29.04 70.264 29.04C71.032 29.04 71.7573 29.04 72.44 29.04C73.1227 29.04 73.6773 29.0293 74.104 29.008C73.8693 29.392 73.6347 29.9147 73.4 30.576C73.1653 31.2373 73.0053 31.8027 72.92 32.272H71.64H66.488C64.6533 32.272 62.936 32.112 61.336 31.792C59.7573 31.4933 58.3173 30.9173 57.016 30.064C55.7147 29.232 54.5627 28.0267 53.56 26.448C52.5573 24.8693 51.7253 22.8213 51.064 20.304L53.72 19.44ZM60.44 5.2H72.12V16.528H60.44V13.872H69.24V7.856H60.44V5.2ZM53.88 14.224H57.112V17.136H52.92L53.88 14.224ZM56.472 14.224H57.08L57.688 14.16L59.672 14.576C59.288 19.2907 58.4987 23.1413 57.304 26.128C56.1093 29.1147 54.5093 31.3547 52.504 32.848C52.3333 32.6133 52.088 32.336 51.768 32.016C51.4693 31.7173 51.16 31.4293 50.84 31.152C50.52 30.8747 50.232 30.672 49.976 30.544C51.9173 29.2213 53.4107 27.2907 54.456 24.752C55.5013 22.192 56.1733 18.8853 56.472 14.832V14.224ZM52.312 18.16C52.2267 17.9467 52.088 17.6693 51.896 17.328C51.7253 16.9867 51.544 16.656 51.352 16.336C51.16 15.9947 50.9787 15.7173 50.808 15.504C51.128 15.3973 51.4907 15.1413 51.896 14.736C52.3013 14.3093 52.6533 13.8507 52.952 13.36C53.1653 13.0187 53.4747 12.4213 53.88 11.568C54.3067 10.7147 54.744 9.72267 55.192 8.592C55.6613 7.44 56.056 6.26667 56.376 5.072V4.944L57.624 4.432L59.8 5.872C59.0747 7.83467 58.2533 9.744 57.336 11.6C56.44 13.4347 55.576 15.024 54.744 16.368V16.432C54.744 16.432 54.616 16.496 54.36 16.624C54.1253 16.7307 53.848 16.88 53.528 17.072C53.208 17.2427 52.92 17.424 52.664 17.616C52.4293 17.808 52.312 17.9893 52.312 18.16ZM89.304 4.624H104.92V8.304H89.304V4.624ZM97.4 14.608H101.336V28.432C101.336 29.4347 101.208 30.224 100.952 30.8C100.717 31.3973 100.248 31.8453 99.544 32.144C98.84 32.4213 97.976 32.592 96.952 32.656C95.928 32.7413 94.7013 32.784 93.272 32.784C93.1867 32.2293 93.0267 31.568 92.792 30.8C92.5787 30.0533 92.344 29.4133 92.088 28.88C92.7067 28.9013 93.3253 28.9227 93.944 28.944C94.5627 28.9653 95.1173 28.976 95.608 28.976C96.0987 28.9547 96.44 28.944 96.632 28.944C96.9307 28.944 97.1333 28.9013 97.24 28.816C97.3467 28.7093 97.4 28.5493 97.4 28.336V14.608ZM87.928 13.52H105.752V17.168H87.928V13.52ZM80.728 17.296L84.088 13.904L84.568 14.096V32.912H80.728V17.296ZM84.344 9.776L87.992 11.184C87.16 12.592 86.1893 14.0107 85.08 15.44C83.992 16.848 82.84 18.1813 81.624 19.44C80.4293 20.6987 79.256 21.7973 78.104 22.736C77.9333 22.4587 77.688 22.1173 77.368 21.712C77.048 21.2853 76.7173 20.8587 76.376 20.432C76.056 20.0053 75.7573 19.664 75.48 19.408C76.5893 18.64 77.688 17.744 78.776 16.72C79.864 15.6747 80.888 14.5653 81.848 13.392C82.808 12.1973 83.64 10.992 84.344 9.776ZM83.128 2.8L86.84 4.336C86.0507 5.33867 85.1653 6.36267 84.184 7.408C83.2027 8.432 82.1787 9.41333 81.112 10.352C80.0453 11.2907 79 12.112 77.976 12.816C77.8267 12.5173 77.624 12.176 77.368 11.792C77.112 11.3867 76.8453 10.992 76.568 10.608C76.312 10.224 76.0667 9.904 75.832 9.648C76.728 9.09333 77.6347 8.42133 78.552 7.632C79.4693 6.84266 80.3333 6.032 81.144 5.2C81.9547 4.34667 82.616 3.54667 83.128 2.8ZM122.744 9.584H133.432V12.944H122.744V9.584ZM125.24 2.864H128.76V14.288C128.76 15.952 128.696 17.6267 128.568 19.312C128.461 20.976 128.216 22.6293 127.832 24.272C127.469 25.8933 126.904 27.4507 126.136 28.944C125.368 30.4373 124.344 31.824 123.064 33.104C122.829 32.848 122.531 32.5707 122.168 32.272C121.827 31.9733 121.464 31.6747 121.08 31.376C120.717 31.0987 120.376 30.8853 120.056 30.736C121.229 29.584 122.168 28.3573 122.872 27.056C123.576 25.7547 124.099 24.4 124.44 22.992C124.781 21.584 124.995 20.1547 125.08 18.704C125.187 17.232 125.24 15.76 125.24 14.288V2.864ZM108.44 5.872H122.424V9.168H108.44V5.872ZM107.992 24.4H122.648V27.76H107.992V24.4ZM113.688 2.832H117.304V12.208H113.688V2.832ZM114.072 12.208H116.888V21.104H117.24V32.848H113.688V21.104H114.072V12.208ZM112.088 18V19.888H119V18H112.088ZM112.088 13.616V15.504H119V13.616H112.088ZM109.144 10.928H122.04V22.576H109.144V10.928ZM130.808 9.584H134.328V28.144C134.328 28.3787 134.36 28.56 134.424 28.688C134.488 28.752 134.552 28.8053 134.616 28.848C134.68 28.8907 134.755 28.912 134.84 28.912C134.904 28.912 134.968 28.912 135.032 28.912C135.117 28.912 135.203 28.912 135.288 28.912C135.352 28.912 135.427 28.9013 135.512 28.88C135.597 28.8373 135.661 28.784 135.704 28.72C135.747 28.6133 135.789 28.4853 135.832 28.336C135.875 28.1653 135.907 27.9733 135.928 27.76C135.949 27.44 135.971 26.928 135.992 26.224C136.013 25.52 136.013 24.72 135.992 23.824C136.312 24.1227 136.717 24.4107 137.208 24.688C137.699 24.944 138.157 25.1467 138.584 25.296C138.563 25.872 138.541 26.48 138.52 27.12C138.499 27.76 138.456 28.3467 138.392 28.88C138.349 29.4133 138.307 29.8187 138.264 30.096C138.051 30.992 137.709 31.6427 137.24 32.048C136.984 32.2187 136.696 32.3573 136.376 32.464C136.056 32.592 135.725 32.656 135.384 32.656C135.128 32.656 134.84 32.656 134.52 32.656C134.2 32.656 133.933 32.656 133.72 32.656C133.315 32.656 132.909 32.5813 132.504 32.432C132.099 32.304 131.757 32.08 131.48 31.76C131.224 31.4613 131.043 31.088 130.936 30.64C130.851 30.192 130.808 29.4347 130.808 28.368V9.584ZM144.632 7.184V11.536H148.248V7.184H144.632ZM141.432 4.016H151.608V14.704H141.432V4.016ZM145.496 13.264H148.728V27.952H145.496V13.264ZM141.208 16.944H144.184V28.816H141.208V16.944ZM139.704 27.6C140.749 27.3867 141.923 27.1413 143.224 26.864C144.547 26.5867 145.933 26.288 147.384 25.968C148.856 25.6267 150.317 25.2853 151.768 24.944L152.152 28.144C150.125 28.6773 148.077 29.2 146.008 29.712C143.939 30.2027 142.072 30.6613 140.408 31.088L139.704 27.6ZM146.84 18.192H151.672V21.456H146.84V18.192ZM152.344 7.824H169.88V11.472H152.344V7.824ZM161.624 10.288H165.176V28.752C165.176 29.648 165.08 30.3627 164.888 30.896C164.717 31.4507 164.365 31.8773 163.832 32.176C163.299 32.4747 162.637 32.6667 161.848 32.752C161.059 32.8373 160.131 32.88 159.064 32.88C159.021 32.3893 158.893 31.7813 158.68 31.056C158.488 30.352 158.264 29.7333 158.008 29.2C158.669 29.2213 159.288 29.2427 159.864 29.264C160.461 29.264 160.867 29.264 161.08 29.264C161.293 29.2427 161.432 29.2 161.496 29.136C161.581 29.0507 161.624 28.912 161.624 28.72V10.288ZM153.464 14.48L156.664 15.056C156.365 16.9333 155.928 18.7573 155.352 20.528C154.797 22.2773 154.136 23.7493 153.368 24.944C153.176 24.7733 152.909 24.5813 152.568 24.368C152.248 24.1333 151.907 23.9093 151.544 23.696C151.181 23.4827 150.872 23.312 150.616 23.184C151.341 22.1173 151.939 20.816 152.408 19.28C152.877 17.7227 153.229 16.1227 153.464 14.48ZM164.504 15.312L167.512 14.128C167.981 15.1093 168.419 16.1653 168.824 17.296C169.229 18.4053 169.581 19.504 169.88 20.592C170.179 21.6587 170.392 22.6293 170.52 23.504L167.288 24.816C167.203 23.9413 167.021 22.96 166.744 21.872C166.467 20.7627 166.136 19.6427 165.752 18.512C165.368 17.36 164.952 16.2933 164.504 15.312ZM156.92 9.2H160.152V16.592C160.152 17.9787 160.067 19.3973 159.896 20.848C159.747 22.2773 159.437 23.7067 158.968 25.136C158.499 26.544 157.795 27.9093 156.856 29.232C155.939 30.5333 154.723 31.7493 153.208 32.88C152.888 32.4747 152.472 32.0373 151.96 31.568C151.469 31.12 151 30.7253 150.552 30.384C151.96 29.3813 153.08 28.304 153.912 27.152C154.765 26 155.405 24.8267 155.832 23.632C156.259 22.416 156.547 21.2107 156.696 20.016C156.845 18.8213 156.92 17.6693 156.92 16.56V9.2ZM158.168 3.664L161.656 2.672C162.061 3.39733 162.467 4.208 162.872 5.104C163.277 5.97867 163.555 6.74667 163.704 7.408L159.992 8.528C159.864 7.888 159.619 7.10933 159.256 6.192C158.915 5.27467 158.552 4.432 158.168 3.664Z" fill="#F0F0F0"/>
<path d="M176.274 15V4.626H178.346V8.728H182.266V4.626H184.324V15H182.266V10.52H178.346V15H176.274ZM186.702 15V7.16H188.76V15H186.702ZM187.738 5.886C187.374 5.886 187.084 5.788 186.87 5.592C186.655 5.38667 186.548 5.11133 186.548 4.766C186.548 4.43 186.655 4.15933 186.87 3.954C187.084 3.74867 187.374 3.646 187.738 3.646C188.083 3.646 188.368 3.74867 188.592 3.954C188.816 4.15933 188.928 4.43 188.928 4.766C188.928 5.11133 188.816 5.38667 188.592 5.592C188.368 5.788 188.083 5.886 187.738 5.886ZM190.954 15V3.828H192.984V10.52H193.04L195.714 7.16H197.968L195.28 10.394L198.22 15H195.98L194.076 11.738L192.984 13.012V15H190.954ZM199.403 15V7.16H201.461V15H199.403ZM200.439 5.886C200.075 5.886 199.786 5.788 199.571 5.592C199.356 5.38667 199.249 5.11133 199.249 4.766C199.249 4.43 199.356 4.15933 199.571 3.954C199.786 3.74867 200.075 3.646 200.439 3.646C200.784 3.646 201.069 3.74867 201.293 3.954C201.517 4.15933 201.629 4.43 201.629 4.766C201.629 5.11133 201.517 5.38667 201.293 5.592C201.069 5.788 200.784 5.886 200.439 5.886ZM203.655 15V7.16H205.335L205.489 8.196H205.531C205.876 7.86 206.254 7.57067 206.665 7.328C207.075 7.08533 207.547 6.964 208.079 6.964C208.928 6.964 209.544 7.244 209.927 7.804C210.309 8.35467 210.501 9.12467 210.501 10.114V15H208.443V10.366C208.443 9.75933 208.354 9.33467 208.177 9.092C208.009 8.84933 207.729 8.728 207.337 8.728C207.019 8.728 206.739 8.80267 206.497 8.952C206.263 9.10133 206.002 9.32067 205.713 9.61V15H203.655ZM215.382 18.402C214.766 18.402 214.21 18.3273 213.716 18.178C213.221 18.038 212.829 17.8187 212.54 17.52C212.26 17.2307 212.12 16.8527 212.12 16.386C212.12 16.0593 212.213 15.756 212.4 15.476C212.586 15.196 212.866 14.958 213.24 14.762V14.692C213.034 14.5613 212.862 14.3887 212.722 14.174C212.591 13.9593 212.526 13.6887 212.526 13.362C212.526 13.0727 212.61 12.802 212.778 12.55C212.955 12.2887 213.16 12.074 213.394 11.906V11.85C213.123 11.654 212.88 11.3787 212.666 11.024C212.451 10.6693 212.344 10.2587 212.344 9.792C212.344 9.176 212.488 8.658 212.778 8.238C213.076 7.818 213.468 7.50067 213.954 7.286C214.439 7.07133 214.952 6.964 215.494 6.964C215.727 6.964 215.942 6.98267 216.138 7.02C216.343 7.05733 216.53 7.104 216.698 7.16H219.512V8.672H218.182C218.284 8.812 218.368 8.98467 218.434 9.19C218.499 9.39533 218.532 9.61933 218.532 9.862C218.532 10.45 218.396 10.9447 218.126 11.346C217.855 11.738 217.491 12.032 217.034 12.228C216.576 12.424 216.063 12.522 215.494 12.522C215.354 12.522 215.195 12.508 215.018 12.48C214.84 12.4427 214.663 12.396 214.486 12.34C214.383 12.4333 214.299 12.5313 214.234 12.634C214.178 12.7273 214.15 12.858 214.15 13.026C214.15 13.222 214.238 13.376 214.416 13.488C214.602 13.6 214.924 13.656 215.382 13.656H216.726C217.668 13.656 218.392 13.8147 218.896 14.132C219.4 14.44 219.652 14.9347 219.652 15.616C219.652 16.148 219.474 16.6193 219.12 17.03C218.774 17.45 218.28 17.7813 217.636 18.024C217.001 18.276 216.25 18.402 215.382 18.402ZM215.494 11.248C215.727 11.248 215.937 11.192 216.124 11.08C216.31 10.968 216.46 10.8047 216.572 10.59C216.684 10.366 216.74 10.1 216.74 9.792C216.74 9.484 216.684 9.22733 216.572 9.022C216.46 8.80733 216.31 8.64867 216.124 8.546C215.937 8.434 215.727 8.378 215.494 8.378C215.27 8.378 215.064 8.434 214.878 8.546C214.691 8.64867 214.542 8.80733 214.43 9.022C214.327 9.22733 214.276 9.484 214.276 9.792C214.276 10.1 214.327 10.366 214.43 10.59C214.542 10.8047 214.691 10.968 214.878 11.08C215.064 11.192 215.27 11.248 215.494 11.248ZM215.69 17.086C216.091 17.086 216.436 17.0347 216.726 16.932C217.024 16.8293 217.258 16.694 217.426 16.526C217.594 16.358 217.678 16.1713 217.678 15.966C217.678 15.686 217.566 15.4947 217.342 15.392C217.118 15.2987 216.796 15.252 216.376 15.252H215.41C215.176 15.252 214.976 15.2427 214.808 15.224C214.64 15.2147 214.481 15.1913 214.332 15.154C214.154 15.294 214.024 15.4387 213.94 15.588C213.865 15.7467 213.828 15.91 213.828 16.078C213.828 16.3953 213.996 16.6427 214.332 16.82C214.668 16.9973 215.12 17.086 215.69 17.086ZM178.332 31V22.362H175.42V20.626H183.33V22.362H180.404V31H178.332ZM184.104 31V23.16H185.784L185.938 24.546H185.98C186.269 24.0327 186.61 23.6407 187.002 23.37C187.394 23.0993 187.795 22.964 188.206 22.964C188.43 22.964 188.607 22.9827 188.738 23.02C188.878 23.048 189.004 23.0853 189.116 23.132L188.78 24.91C188.631 24.8727 188.495 24.8447 188.374 24.826C188.262 24.798 188.117 24.784 187.94 24.784C187.641 24.784 187.324 24.9007 186.988 25.134C186.661 25.3673 186.386 25.764 186.162 26.324V31H184.104ZM191.628 31.196C191.17 31.196 190.764 31.098 190.41 30.902C190.064 30.6967 189.794 30.4167 189.598 30.062C189.411 29.7073 189.318 29.306 189.318 28.858C189.318 28.0273 189.677 27.3833 190.396 26.926C191.114 26.4593 192.258 26.142 193.826 25.974C193.816 25.7127 193.77 25.484 193.686 25.288C193.602 25.0827 193.462 24.9193 193.266 24.798C193.079 24.6767 192.822 24.616 192.496 24.616C192.132 24.616 191.772 24.686 191.418 24.826C191.063 24.966 190.704 25.148 190.34 25.372L189.612 24C189.92 23.804 190.246 23.6313 190.592 23.482C190.937 23.3327 191.301 23.2113 191.684 23.118C192.066 23.0153 192.463 22.964 192.874 22.964C193.536 22.964 194.092 23.0947 194.54 23.356C194.988 23.6173 195.324 24.0047 195.548 24.518C195.772 25.0313 195.884 25.666 195.884 26.422V31H194.204L194.064 30.16H193.994C193.658 30.4587 193.294 30.706 192.902 30.902C192.51 31.098 192.085 31.196 191.628 31.196ZM192.314 29.586C192.603 29.586 192.864 29.5207 193.098 29.39C193.34 29.25 193.583 29.0587 193.826 28.816V27.248C193.191 27.3227 192.687 27.43 192.314 27.57C191.94 27.71 191.674 27.878 191.516 28.074C191.357 28.2607 191.278 28.4707 191.278 28.704C191.278 29.012 191.371 29.236 191.558 29.376C191.754 29.516 192.006 29.586 192.314 29.586ZM201.313 31.196C200.594 31.196 199.946 31.0327 199.367 30.706C198.788 30.3793 198.331 29.9127 197.995 29.306C197.659 28.69 197.491 27.948 197.491 27.08C197.491 26.212 197.673 25.4747 198.037 24.868C198.41 24.252 198.9 23.7807 199.507 23.454C200.123 23.1273 200.786 22.964 201.495 22.964C201.98 22.964 202.41 23.048 202.783 23.216C203.156 23.3747 203.488 23.5847 203.777 23.846L202.797 25.148C202.61 24.98 202.419 24.854 202.223 24.77C202.027 24.686 201.822 24.644 201.607 24.644C201.206 24.644 200.851 24.7467 200.543 24.952C200.244 25.148 200.011 25.428 199.843 25.792C199.684 26.156 199.605 26.5853 199.605 27.08C199.605 27.5747 199.684 28.004 199.843 28.368C200.011 28.732 200.24 29.0167 200.529 29.222C200.828 29.418 201.164 29.516 201.537 29.516C201.817 29.516 202.088 29.4553 202.349 29.334C202.61 29.2127 202.848 29.0633 203.063 28.886L203.875 30.244C203.502 30.5707 203.086 30.8133 202.629 30.972C202.181 31.1213 201.742 31.196 201.313 31.196ZM205.364 31V19.828H207.394V26.52H207.45L210.124 23.16H212.378L209.69 26.394L212.63 31H210.39L208.486 27.738L207.394 29.012V31H205.364Z" fill="#F0F0F0"/>
</svg>
