<svg width="896" height="366" viewBox="0 0 896 366" fill="none" xmlns="http://www.w3.org/2000/svg">
<path d="M56.704 242.944L75.008 247.168C73.1307 253.824 70.8267 260.437 68.096 267.008C65.4507 273.493 62.5493 279.595 59.392 285.312C56.2347 290.944 52.9067 295.851 49.408 300.032C48.2987 298.923 46.8053 297.6 44.928 296.064C43.136 294.443 41.3013 292.907 39.424 291.456C37.5467 289.92 35.8827 288.683 34.432 287.744C37.76 284.245 40.832 280.107 43.648 275.328C46.464 270.549 48.9813 265.387 51.2 259.84C53.4187 254.293 55.2533 248.661 56.704 242.944ZM52.352 301.312L70.4 305.024C69.2907 310.315 67.84 315.605 66.048 320.896C64.3413 326.101 62.4213 331.008 60.288 335.616C58.1547 340.224 55.936 344.235 53.632 347.648C52.5227 346.624 50.9867 345.472 49.024 344.192C47.0613 342.912 45.056 341.675 43.008 340.48C41.0453 339.285 39.3387 338.347 37.888 337.664C41.3013 333.397 44.2453 327.979 46.72 321.408C49.1947 314.752 51.072 308.053 52.352 301.312ZM61.824 264.576H111.488V281.728H54.912L61.824 264.576ZM73.6 272.256H92.032V343.936C92.032 348.117 91.6053 351.531 90.752 354.176C89.8987 356.907 88.1493 359.04 85.504 360.576C82.944 362.027 80 363.008 76.672 363.52C73.4293 364.032 69.6747 364.288 65.408 364.288C65.0667 361.557 64.256 358.357 62.976 354.688C61.7813 351.104 60.5013 348.075 59.136 345.6C61.6107 345.685 64.0427 345.728 66.432 345.728C68.8213 345.728 70.4427 345.728 71.296 345.728C72.1493 345.728 72.7467 345.6 73.088 345.344C73.4293 345.088 73.6 344.533 73.6 343.68V272.256ZM93.952 305.408L110.592 299.776C112.725 304.128 114.645 308.779 116.352 313.728C118.144 318.592 119.637 323.413 120.832 328.192C122.112 332.885 123.008 337.152 123.52 340.992L105.6 347.264C105.259 343.509 104.533 339.2 103.424 334.336C102.315 329.472 100.949 324.523 99.328 319.488C97.7067 314.453 95.9147 309.76 93.952 305.408ZM106.624 264.576H109.056L111.872 264.064L125.056 266.368C124.373 271.829 123.52 277.461 122.496 283.264C121.472 288.981 120.491 293.845 119.552 297.856L103.68 295.04C104.021 292.651 104.363 289.877 104.704 286.72C105.131 283.477 105.515 280.149 105.856 276.736C106.197 273.237 106.453 269.952 106.624 266.88V264.576ZM28.416 243.072L45.952 248.576C43.2213 255.829 39.9787 263.168 36.224 270.592C32.4693 278.016 28.3733 285.056 23.936 291.712C19.584 298.368 15.0613 304.171 10.368 309.12C9.856 307.584 9.00267 305.579 7.808 303.104C6.69867 300.629 5.46133 298.155 4.096 295.68C2.816 293.12 1.664 291.072 0.64 289.536C4.30933 285.781 7.85067 281.429 11.264 276.48C14.7627 271.531 17.9627 266.197 20.864 260.48C23.8507 254.763 26.368 248.96 28.416 243.072ZM16.64 279.808L34.304 262.144V262.272V364.032H16.64V279.808ZM147.2 263.424H186.752V351.104H147.2V334.848H169.984V279.552H147.2V263.424ZM136.448 263.424H153.216V360.192H136.448V263.424ZM146.688 296.832H177.92V312.832H146.688V296.832ZM153.856 242.56L174.208 245.376C172.672 249.899 171.093 254.336 169.472 258.688C167.936 263.04 166.528 266.752 165.248 269.824L150.4 266.624C150.912 264.32 151.381 261.76 151.808 258.944C152.32 256.128 152.747 253.312 153.088 250.496C153.515 247.595 153.771 244.949 153.856 242.56ZM202.88 262.144H239.232V279.04H202.88V262.144ZM232.832 262.144H249.984C249.984 262.144 249.984 262.656 249.984 263.68C249.984 264.704 249.984 265.856 249.984 267.136C249.984 268.416 249.941 269.44 249.856 270.208C249.515 284.459 249.131 296.576 248.704 306.56C248.277 316.544 247.765 324.821 247.168 331.392C246.571 337.877 245.845 342.997 244.992 346.752C244.139 350.421 243.029 353.152 241.664 354.944C239.701 357.76 237.653 359.68 235.52 360.704C233.387 361.813 230.912 362.624 228.096 363.136C225.536 363.563 222.379 363.776 218.624 363.776C214.955 363.776 211.2 363.733 207.36 363.648C207.275 361.173 206.635 358.187 205.44 354.688C204.331 351.189 202.923 348.16 201.216 345.6C205.312 345.941 209.109 346.155 212.608 346.24C216.192 346.325 218.837 346.368 220.544 346.368C221.824 346.368 222.848 346.197 223.616 345.856C224.469 345.515 225.323 344.917 226.176 344.064C227.2 342.955 228.053 340.693 228.736 337.28C229.504 333.781 230.101 328.917 230.528 322.688C231.04 316.373 231.467 308.523 231.808 299.136C232.235 289.664 232.576 278.485 232.832 265.6V262.144ZM201.984 242.944L219.904 247.168C218.197 253.397 216.107 259.669 213.632 265.984C211.243 272.213 208.64 278.101 205.824 283.648C203.008 289.195 200.149 294.016 197.248 298.112C196.139 297.088 194.645 295.893 192.768 294.528C190.891 293.077 188.971 291.712 187.008 290.432C185.131 289.067 183.467 288 182.016 287.232C184.832 283.733 187.477 279.595 189.952 274.816C192.512 270.037 194.816 264.917 196.864 259.456C198.912 253.909 200.619 248.405 201.984 242.944ZM195.456 301.184L210.048 292.992C212.011 295.893 214.101 299.093 216.32 302.592C218.624 306.005 220.8 309.376 222.848 312.704C224.981 315.947 226.688 318.848 227.968 321.408L212.224 331.008C211.115 328.363 209.579 325.333 207.616 321.92C205.739 318.507 203.733 315.008 201.6 311.424C199.467 307.755 197.419 304.341 195.456 301.184ZM276.736 242.816L293.376 247.552C291.413 254.805 288.981 262.229 286.08 269.824C283.264 277.333 280.107 284.501 276.608 291.328C273.195 298.155 269.525 304.128 265.6 309.248C265.259 307.712 264.619 305.664 263.68 303.104C262.741 300.459 261.717 297.813 260.608 295.168C259.499 292.523 258.475 290.389 257.536 288.768C261.632 282.965 265.344 276.011 268.672 267.904C272 259.712 274.688 251.349 276.736 242.816ZM269.44 282.368L285.312 266.496L285.568 266.624V364.032H269.44V282.368ZM338.944 243.84H354.048V344.064H338.944V243.84ZM321.536 268.16H380.928V281.344H321.536V268.16ZM323.968 320.128H376.448V334.336H323.968V320.128ZM326.272 302.592H373.632V316.288H326.272V302.592ZM291.712 249.984H311.424V265.6H291.712V249.984ZM300.416 309.376C302.379 317.141 304.896 323.456 307.968 328.32C311.04 333.099 314.581 336.768 318.592 339.328C322.688 341.888 327.168 343.637 332.032 344.576C336.981 345.515 342.272 345.984 347.904 345.984C349.44 345.984 351.659 345.984 354.56 345.984C357.461 345.984 360.576 345.984 363.904 345.984C367.317 345.984 370.56 345.984 373.632 345.984C376.704 345.899 379.179 345.813 381.056 345.728C379.947 347.605 378.837 350.123 377.728 353.28C376.704 356.437 375.979 359.168 375.552 361.472H369.92H347.008C339.669 361.472 332.928 360.832 326.784 359.552C320.64 358.272 315.093 355.883 310.144 352.384C305.195 348.971 300.843 344.107 297.088 337.792C293.333 331.477 290.176 323.328 287.616 313.344L300.416 309.376ZM326.4 251.52H374.016V298.624H326.4V286.08H360.32V264.064H326.4V251.52ZM300.544 287.488H311.936V301.44H296.192L300.544 287.488ZM309.12 287.488H312.064L314.88 287.232L324.352 289.152C322.901 308.437 319.787 324.224 315.008 336.512C310.315 348.8 303.872 357.973 295.68 364.032C294.827 362.923 293.632 361.643 292.096 360.192C290.645 358.741 289.152 357.333 287.616 355.968C286.08 354.688 284.715 353.707 283.52 353.024C291.371 347.733 297.344 340.011 301.44 329.856C305.536 319.616 308.096 306.432 309.12 290.304V287.488ZM293.504 306.048C293.077 305.024 292.437 303.701 291.584 302.08C290.731 300.459 289.835 298.88 288.896 297.344C287.957 295.723 287.104 294.4 286.336 293.376C287.701 292.949 289.237 291.883 290.944 290.176C292.736 288.384 294.229 286.464 295.424 284.416C296.192 283.051 297.344 280.661 298.88 277.248C300.501 273.835 302.165 269.824 303.872 265.216C305.664 260.608 307.157 255.915 308.352 251.136V250.496L314.24 248.192L324.48 255.104C321.835 262.955 318.72 270.635 315.136 278.144C311.552 285.653 308.139 292.139 304.896 297.6V297.856C304.896 297.856 304.299 298.155 303.104 298.752C301.995 299.264 300.672 299.947 299.136 300.8C297.685 301.653 296.363 302.549 295.168 303.488C294.059 304.427 293.504 305.28 293.504 306.048ZM441.984 249.6H504.32V267.264H441.984V249.6ZM471.68 290.432H490.752V343.296C490.752 347.989 490.197 351.701 489.088 354.432C488.064 357.163 485.931 359.253 482.688 360.704C479.616 362.069 475.947 362.923 471.68 363.264C467.413 363.605 462.549 363.776 457.088 363.776C456.747 361.045 456.021 357.845 454.912 354.176C453.888 350.507 452.779 347.349 451.584 344.704C453.717 344.789 455.936 344.875 458.24 344.96C460.544 345.045 462.635 345.088 464.512 345.088C466.475 345.088 467.84 345.088 468.608 345.088C469.803 345.088 470.613 344.917 471.04 344.576C471.467 344.235 471.68 343.637 471.68 342.784V290.432ZM436.608 285.184H507.52V302.848H436.608V285.184ZM406.016 303.232L422.272 286.848L424.704 287.744V364.16H406.016V303.232ZM420.352 270.72L438.016 277.504C434.688 283.307 430.763 289.152 426.24 295.04C421.803 300.928 417.109 306.475 412.16 311.68C407.296 316.885 402.517 321.408 397.824 325.248C396.971 323.883 395.776 322.176 394.24 320.128C392.789 318.08 391.253 316.032 389.632 313.984C388.011 311.936 386.56 310.272 385.28 308.992C389.632 306.005 393.941 302.464 398.208 298.368C402.56 294.187 406.656 289.749 410.496 285.056C414.336 280.277 417.621 275.499 420.352 270.72ZM415.616 242.56L433.536 249.984C430.293 254.165 426.624 258.432 422.528 262.784C418.517 267.051 414.293 271.104 409.856 274.944C405.504 278.784 401.195 282.155 396.928 285.056C396.16 283.605 395.179 281.941 393.984 280.064C392.789 278.101 391.552 276.181 390.272 274.304C388.992 272.427 387.797 270.891 386.688 269.696C390.272 267.477 393.899 264.832 397.568 261.76C401.237 258.603 404.651 255.36 407.808 252.032C411.051 248.619 413.653 245.461 415.616 242.56ZM575.104 269.312H617.856V285.44H575.104V269.312ZM582.912 242.816H599.808V291.584C599.808 298.155 599.595 304.768 599.168 311.424C598.741 317.995 597.803 324.48 596.352 330.88C594.987 337.28 592.853 343.381 589.952 349.184C587.136 354.987 583.339 360.363 578.56 365.312C577.451 364.117 576.043 362.752 574.336 361.216C572.629 359.765 570.837 358.357 568.96 356.992C567.168 355.627 565.504 354.56 563.968 353.792C568.235 349.525 571.648 344.96 574.208 340.096C576.768 335.232 578.645 330.155 579.84 324.864C581.12 319.488 581.931 314.027 582.272 308.48C582.699 302.848 582.912 297.216 582.912 291.584V242.816ZM517.12 253.824H573.696V269.696H517.12V253.824ZM515.328 328.704H574.208V344.832H515.328V328.704ZM536.96 242.688H554.368V281.344H536.96V242.688ZM538.88 281.344H552.192V316.032H554.112V364.032H536.96V316.032H538.88V281.344ZM533.76 305.024V310.272H557.824V305.024H533.76ZM533.76 288V293.248H557.824V288H533.76ZM519.808 275.328H572.416V322.944H519.808V275.328ZM604.928 269.312H621.952V342.144C621.952 343.083 622.037 343.808 622.208 344.32C622.379 344.576 622.549 344.789 622.72 344.96C622.976 345.131 623.232 345.216 623.488 345.216C623.659 345.216 623.829 345.216 624 345.216C624.171 345.216 624.384 345.216 624.64 345.216C624.811 345.216 625.024 345.173 625.28 345.088C625.536 344.917 625.749 344.661 625.92 344.32C626.091 343.893 626.219 343.339 626.304 342.656C626.389 341.973 626.475 341.248 626.56 340.48C626.731 339.115 626.816 337.067 626.816 334.336C626.901 331.52 626.901 328.32 626.816 324.736C628.352 326.101 630.272 327.424 632.576 328.704C634.88 329.984 637.056 330.965 639.104 331.648C639.019 334.123 638.891 336.683 638.72 339.328C638.635 341.973 638.464 344.405 638.208 346.624C638.037 348.843 637.824 350.592 637.568 351.872C636.715 355.712 635.221 358.571 633.088 360.448C631.979 361.301 630.699 361.984 629.248 362.496C627.883 363.008 626.475 363.264 625.024 363.264C623.915 363.264 622.677 363.264 621.312 363.264C620.032 363.264 618.88 363.264 617.856 363.264C615.979 363.264 614.144 362.923 612.352 362.24C610.56 361.643 609.067 360.619 607.872 359.168C606.763 357.803 605.995 356.139 605.568 354.176C605.141 352.213 604.928 348.8 604.928 343.936V269.312ZM664.448 262.272V276.224H674.944V262.272H664.448ZM649.216 247.04H691.072V291.456H649.216V247.04ZM665.088 284.928H680.576V343.168H665.088V284.928ZM647.68 298.752H661.888V346.624H647.68V298.752ZM642.304 340.224C646.485 339.456 651.221 338.56 656.512 337.536C661.803 336.427 667.392 335.275 673.28 334.08C679.168 332.8 685.013 331.52 690.816 330.24L692.608 345.728C684.587 347.776 676.437 349.781 668.16 351.744C659.883 353.621 652.373 355.371 645.632 356.992L642.304 340.224ZM671.744 303.36H690.816V318.976H671.744V303.36ZM693.504 261.888H763.904V279.552H693.504V261.888ZM729.088 274.176H746.24V344.832C746.24 348.928 745.856 352.256 745.088 354.816C744.32 357.376 742.699 359.381 740.224 360.832C737.835 362.283 734.976 363.221 731.648 363.648C728.405 364.075 724.651 364.288 720.384 364.288C720.213 361.813 719.659 358.827 718.72 355.328C717.781 351.915 716.715 348.928 715.52 346.368C717.824 346.453 720.085 346.539 722.304 346.624C724.523 346.624 726.059 346.624 726.912 346.624C727.765 346.539 728.32 346.368 728.576 346.112C728.917 345.856 729.088 345.344 729.088 344.576V274.176ZM696.832 289.536L712.192 292.352C710.997 299.776 709.291 307.029 707.072 314.112C704.853 321.109 702.251 326.997 699.264 331.776C698.325 330.923 697.045 329.984 695.424 328.96C693.803 327.851 692.139 326.784 690.432 325.76C688.725 324.736 687.275 323.925 686.08 323.328C688.811 319.232 691.072 314.155 692.864 308.096C694.656 302.037 695.979 295.851 696.832 289.536ZM740.864 293.376L755.2 287.616C757.077 291.541 758.784 295.765 760.32 300.288C761.941 304.725 763.307 309.12 764.416 313.472C765.611 317.739 766.464 321.621 766.976 325.12L751.488 331.52C751.147 328.021 750.464 324.096 749.44 319.744C748.416 315.307 747.136 310.784 745.6 306.176C744.149 301.568 742.571 297.301 740.864 293.376ZM710.4 268.672H726.016V300.032C726.016 305.579 725.675 311.211 724.992 316.928C724.395 322.645 723.157 328.32 721.28 333.952C719.403 339.499 716.629 344.832 712.96 349.952C709.376 355.072 704.64 359.808 698.752 364.16C697.301 362.197 695.339 360.107 692.864 357.888C690.389 355.669 688.085 353.749 685.952 352.128C691.328 348.288 695.637 344.235 698.88 339.968C702.123 335.616 704.555 331.179 706.176 326.656C707.883 322.133 708.992 317.611 709.504 313.088C710.101 308.565 710.4 304.171 710.4 299.904V268.672ZM715.904 246.528L732.8 241.792C734.336 244.693 735.872 247.893 737.408 251.392C739.029 254.891 740.139 257.92 740.736 260.48L722.816 265.856C722.304 263.381 721.365 260.309 720 256.64C718.72 252.971 717.355 249.6 715.904 246.528ZM794.496 360.32C790.997 360.32 787.755 359.424 784.768 357.632C781.781 355.925 779.392 353.579 777.6 350.592C775.893 347.605 775.04 344.277 775.04 340.608C775.04 337.024 775.893 333.781 777.6 330.88C779.392 327.893 781.739 325.547 784.64 323.84C787.627 322.048 790.912 321.152 794.496 321.152C798.165 321.152 801.451 322.048 804.352 323.84C807.339 325.547 809.685 327.893 811.392 330.88C813.184 333.781 814.08 337.024 814.08 340.608C814.08 344.277 813.184 347.605 811.392 350.592C809.685 353.579 807.339 355.925 804.352 357.632C801.365 359.424 798.08 360.32 794.496 360.32ZM794.496 352C797.653 352 800.299 350.891 802.432 348.672C804.651 346.368 805.76 343.723 805.76 340.736C805.76 337.664 804.693 335.019 802.56 332.8C800.427 330.496 797.739 329.344 794.496 329.344C791.339 329.344 788.651 330.453 786.432 332.672C784.299 334.891 783.232 337.579 783.232 340.736C783.232 343.808 784.299 346.453 786.432 348.672C788.651 350.891 791.339 352 794.496 352Z" fill="#FFFF3C"/>
<path d="M93 19H184.4V120.2H154.4V49H93V19ZM111.2 80H169V108.6H111.2V80ZM96.4 80H127V157.8C127 162.333 127.533 165.2 128.6 166.4C129.667 167.6 132.2 168.2 136.2 168.2C136.867 168.2 137.867 168.2 139.2 168.2C140.667 168.2 142.2 168.2 143.8 168.2C145.4 168.2 147 168.2 148.6 168.2C150.333 168.2 151.867 168.2 153.2 168.2C154.667 168.2 155.8 168.2 156.6 168.2C159.4 168.2 161.467 167.333 162.8 165.6C164.267 163.867 165.267 160.533 165.8 155.6C166.467 150.667 167 143.467 167.4 134C169.667 135.6 172.4 137.267 175.6 139C178.933 140.6 182.267 142.067 185.6 143.4C189.067 144.6 192.133 145.533 194.8 146.2C193.867 158.6 192.2 168.333 189.8 175.4C187.4 182.467 183.8 187.467 179 190.4C174.2 193.467 167.6 195 159.2 195C158.133 195 156.667 195 154.8 195C152.933 195 150.867 195 148.6 195C146.467 195 144.267 195 142 195C139.867 195 137.867 195 136 195C134.133 195 132.667 195 131.6 195C122.8 195 115.8 193.867 110.6 191.6C105.533 189.467 101.867 185.667 99.6 180.2C97.4667 174.867 96.4 167.467 96.4 158V80ZM56.8 92.4L77.8 84.2C79.9333 88.4667 82 93.1333 84 98.2C86.1333 103.267 88 108.2 89.6 113C91.3333 117.667 92.6 121.8 93.4 125.4L71 135.2C70.3333 131.467 69.2 127.133 67.6 122.2C66.1333 117.267 64.4667 112.2 62.6 107C60.7333 101.8 58.8 96.9333 56.8 92.4ZM37 146.2L59.8 140.4C61.2667 147.733 62.5333 155.667 63.6 164.2C64.6667 172.6 65.4 180 65.8 186.4L41.6 192.6C41.6 188.333 41.3333 183.533 40.8 178.2C40.4 172.867 39.8667 167.4 39.2 161.8C38.5333 156.2 37.8 151 37 146.2ZM12 143L36 146.8C35.6 156 34.6667 165.067 33.2 174C31.7333 182.933 29.9333 190.467 27.8 196.6C26.0667 195.533 23.7333 194.467 20.8 193.4C18 192.467 15.1333 191.533 12.2 190.6C9.26667 189.667 6.8 188.933 4.8 188.4C7.06667 182.667 8.73333 175.733 9.8 167.6C10.8667 159.333 11.6 151.133 12 143ZM13.8 91C13.4 89.2667 12.6667 86.9333 11.6 84C10.6667 80.9333 9.6 77.8 8.4 74.6C7.33333 71.4 6.26667 68.6667 5.2 66.4C7.33333 65.7333 9.33333 64.5333 11.2 62.8C13.0667 60.9333 15 58.5333 17 55.6C18.0667 54.1333 19.5333 51.8 21.4 48.6C23.4 45.4 25.5333 41.6 27.8 37.2C30.0667 32.6667 32.3333 27.8667 34.6 22.8C36.8667 17.6 38.8667 12.3333 40.6 6.99999L66.6 17.8C61.8 28.3333 56 38.9333 49.2 49.6C42.5333 60.2667 35.8667 69.5333 29.2 77.4V78C29.2 78 28.4 78.4667 26.8 79.4C25.3333 80.3333 23.5333 81.4667 21.4 82.8C19.4 84.1333 17.6 85.5333 16 87C14.5333 88.4667 13.8 89.8 13.8 91ZM13.8 91L13 70.8L24.4 63.2L59 61C58.2 64.6 57.4667 68.6667 56.8 73.2C56.2667 77.7333 55.9333 81.4667 55.8 84.4C48.2 85.0667 41.9333 85.7333 37 86.4C32.0667 86.9333 28.0667 87.4667 25 88C22.0667 88.4 19.7333 88.8667 18 89.4C16.2667 89.9333 14.8667 90.4667 13.8 91ZM15.4 138.2C15 136.467 14.2667 134 13.2 130.8C12.1333 127.6 10.9333 124.333 9.6 121C8.4 117.533 7.26667 114.6 6.2 112.2C9.26667 111.533 12.0667 110.067 14.6 107.8C17.1333 105.533 20.1333 102.533 23.6 98.8C25.4667 96.9333 28.0667 93.8667 31.4 89.6C34.7333 85.2 38.4 80 42.4 74C46.5333 68 50.6 61.5333 54.6 54.6C58.7333 47.6667 62.4 40.6667 65.6 33.6L89.8 49.2C84.8667 58.2667 79.2 67.2667 72.8 76.2C66.4 85.1333 59.6667 93.7333 52.6 102C45.5333 110.133 38.4667 117.533 31.4 124.2V125C31.4 125 30.6 125.467 29 126.4C27.4 127.333 25.5333 128.467 23.4 129.8C21.2667 131.133 19.4 132.6 17.8 134.2C16.2 135.667 15.4 137 15.4 138.2ZM15.4 138.2L13.8 117L25.4 109L76.6 102.2C76.0667 105.8 75.6 109.933 75.2 114.6C74.9333 119.133 74.8667 122.867 75 125.8C63.6667 127.533 54.4 129.067 47.2 130.4C40 131.6 34.3333 132.667 30.2 133.6C26.0667 134.533 22.8667 135.333 20.6 136C18.4667 136.667 16.7333 137.4 15.4 138.2ZM61.2 141.2L82.6 134C84.8667 140 87.0667 146.533 89.2 153.6C91.4667 160.533 93.2 166.533 94.4 171.6L71.8 180C70.8667 174.8 69.3333 168.6 67.2 161.4C65.2 154.067 63.2 147.333 61.2 141.2ZM220.2 59.2H268V83.2H220.2V59.2ZM207.8 93.8H278.2V118.2H207.8V93.8ZM206.2 125.8L224.6 121C226.067 126.2 227.467 131.867 228.8 138C230.267 144.133 231.267 149.4 231.8 153.8L212.4 159.4C212 154.733 211.2 149.333 210 143.2C208.8 136.933 207.533 131.133 206.2 125.8ZM204.4 168.4C213.467 167.333 224.467 165.933 237.4 164.2C250.333 162.467 263.467 160.667 276.8 158.8L278.2 181.4C266.467 183.8 254.6 186.067 242.6 188.2C230.733 190.467 219.867 192.533 210 194.4L204.4 168.4ZM264.4 120.4L282.4 124.6C280.667 130.2 279 135.933 277.4 141.8C275.933 147.533 274.467 152.4 273 156.4L258.6 152.6C259.4 149.533 260.133 146.133 260.8 142.4C261.6 138.533 262.333 134.667 263 130.8C263.667 126.933 264.133 123.467 264.4 120.4ZM232.8 68.8H256V175.8L232.8 180.4V68.8ZM239.8 7.59999L261.2 15.8C257.467 23.9333 252.933 32.1333 247.6 40.4C242.267 48.5333 236.467 56.2667 230.2 63.6C224.067 70.8 217.733 77.1333 211.2 82.6C211.067 80.6 210.533 77.8 209.6 74.2C208.667 70.4667 207.6 66.6667 206.4 62.8C205.2 58.9333 204.067 55.8667 203 53.6C209.933 48 216.733 41.2 223.4 33.2C230.2 25.0667 235.667 16.5333 239.8 7.59999ZM236.8 31.6L252 15.4C256 19.1333 260.4 23.2667 265.2 27.8C270.133 32.3333 274.8 36.8 279.2 41.2C283.733 45.4667 287.4 49.2 290.2 52.4L274 71.2C271.333 67.7333 267.8 63.7333 263.4 59.2C259.133 54.5333 254.6 49.8 249.8 45C245.133 40.0667 240.8 35.6 236.8 31.6ZM374.4 105.2L393.6 121.2C389.467 125.467 385.133 129.733 380.6 134C376.2 138.267 372.267 141.867 368.8 144.8L353.2 130.6C355.333 128.467 357.667 126 360.2 123.2C362.867 120.267 365.467 117.2 368 114C370.533 110.8 372.667 107.867 374.4 105.2ZM280 118.8L299 105.2C302.2 108.667 305.667 112.667 309.4 117.2C313.267 121.6 316.2 125.467 318.2 128.8L298 144C296.933 141.733 295.333 139.133 293.2 136.2C291.2 133.267 289 130.267 286.6 127.2C284.333 124.133 282.133 121.333 280 118.8ZM309.2 25.2H359.8V46.8H309.2V25.2ZM305 54H355.6V75.6H305V54ZM281.2 81H393.8V106.2H281.2V81ZM321.6 97.2H348.2V172.6C348.2 178.333 347.6 182.933 346.4 186.4C345.333 190 342.933 192.8 339.2 194.8C335.733 196.667 331.733 197.867 327.2 198.4C322.667 198.933 317.467 199.2 311.6 199.2C311.2 195.6 310.267 191.4 308.8 186.6C307.333 181.933 305.733 177.933 304 174.6C306.8 174.733 309.667 174.8 312.6 174.8C315.667 174.8 317.667 174.8 318.6 174.8C320.6 174.8 321.6 173.933 321.6 172.2V97.2ZM274.8 162.6C279.467 160.2 285.067 157.067 291.6 153.2C298.133 149.2 304.867 145.133 311.8 141L320 162C315.067 165.733 309.867 169.533 304.4 173.4C299.067 177.267 293.933 180.933 289 184.4L274.8 162.6ZM303.4 8.79999L330.2 11.6C328.6 18.8 326.867 26.3333 325 34.2C323.133 41.9333 321.267 49.4 319.4 56.6C317.533 63.8 315.733 70.1333 314 75.6H286.6C288.467 69.7333 290.4 63 292.4 55.4C294.533 47.8 296.533 39.9333 298.4 31.8C300.4 23.6667 302.067 16 303.4 8.79999ZM352 25.2H355L359.4 24.2L379.2 26.8C378.267 33.7333 377.067 40.8667 375.6 48.2C374.267 55.4 372.867 62.5333 371.4 69.6C369.933 76.5333 368.467 83.1333 367 89.4L340.6 86C342.2 79.4667 343.733 72.6 345.2 65.4C346.667 58.2 348 51.3333 349.2 44.8C350.4 38.1333 351.333 32.5333 352 28V25.2ZM348.2 159.4L363.4 142.2C366.867 144.467 370.733 147 375 149.8C379.267 152.6 383.4 155.4 387.4 158.2C391.4 161 394.667 163.467 397.2 165.6L381.2 185C378.933 182.733 375.867 180.133 372 177.2C368.133 174.133 364.067 171.067 359.8 168C355.667 164.8 351.8 161.933 348.2 159.4Z" fill="#FFFF3C"/>
</svg>
