<svg width="901" height="283" viewBox="0 0 901 283" fill="none" xmlns="http://www.w3.org/2000/svg">
<path d="M30.16 110.46L53.56 117.12C50.8 127.32 47.38 137.76 43.3 148.44C39.34 159 34.9 169.08 29.98 178.68C25.18 188.28 20.02 196.68 14.5 203.88C14.02 201.72 13.12 198.84 11.8 195.24C10.48 191.52 9.04 187.8 7.48 184.08C5.92 180.36 4.48 177.36 3.16 175.08C8.92 166.92 14.14 157.14 18.82 145.74C23.5 134.22 27.28 122.46 30.16 110.46ZM19.9 166.08L42.22 143.76L42.58 143.94V280.92H19.9V166.08ZM117.64 111.9H138.88V252.84H117.64V111.9ZM93.16 146.1H176.68V164.64H93.16V146.1ZM96.58 219.18H170.38V239.16H96.58V219.18ZM99.82 194.52H166.42V213.78H99.82V194.52ZM51.22 120.54H78.94V142.5H51.22V120.54ZM63.46 204.06C66.22 214.98 69.76 223.86 74.08 230.7C78.4 237.42 83.38 242.58 89.02 246.18C94.78 249.78 101.08 252.24 107.92 253.56C114.88 254.88 122.32 255.54 130.24 255.54C132.4 255.54 135.52 255.54 139.6 255.54C143.68 255.54 148.06 255.54 152.74 255.54C157.54 255.54 162.1 255.54 166.42 255.54C170.74 255.42 174.22 255.3 176.86 255.18C175.3 257.82 173.74 261.36 172.18 265.8C170.74 270.24 169.72 274.08 169.12 277.32H161.2H128.98C118.66 277.32 109.18 276.42 100.54 274.62C91.9 272.82 84.1 269.46 77.14 264.54C70.18 259.74 64.06 252.9 58.78 244.02C53.5 235.14 49.06 223.68 45.46 209.64L63.46 204.06ZM100 122.7H166.96V188.94H100V171.3H147.7V140.34H100V122.7ZM63.64 173.28H79.66V192.9H57.52L63.64 173.28ZM75.7 173.28H79.84L83.8 172.92L97.12 175.62C95.08 202.74 90.7 224.94 83.98 242.22C77.38 259.5 68.32 272.4 56.8 280.92C55.6 279.36 53.92 277.56 51.76 275.52C49.72 273.48 47.62 271.5 45.46 269.58C43.3 267.78 41.38 266.4 39.7 265.44C50.74 258 59.14 247.14 64.9 232.86C70.66 218.46 74.26 199.92 75.7 177.24V173.28ZM53.74 199.38C53.14 197.94 52.24 196.08 51.04 193.8C49.84 191.52 48.58 189.3 47.26 187.14C45.94 184.86 44.74 183 43.66 181.56C45.58 180.96 47.74 179.46 50.14 177.06C52.66 174.54 54.76 171.84 56.44 168.96C57.52 167.04 59.14 163.68 61.3 158.88C63.58 154.08 65.92 148.44 68.32 141.96C70.84 135.48 72.94 128.88 74.62 122.16V121.26L82.9 118.02L97.3 127.74C93.58 138.78 89.2 149.58 84.16 160.14C79.12 170.7 74.32 179.82 69.76 187.5V187.86C69.76 187.86 68.92 188.28 67.24 189.12C65.68 189.84 63.82 190.8 61.66 192C59.62 193.2 57.76 194.46 56.08 195.78C54.52 197.1 53.74 198.3 53.74 199.38ZM262.54 120H350.2V144.84H262.54V120ZM304.3 177.42H331.12V251.76C331.12 258.36 330.34 263.58 328.78 267.42C327.34 271.26 324.34 274.2 319.78 276.24C315.46 278.16 310.3 279.36 304.3 279.84C298.3 280.32 291.46 280.56 283.78 280.56C283.3 276.72 282.28 272.22 280.72 267.06C279.28 261.9 277.72 257.46 276.04 253.74C279.04 253.86 282.16 253.98 285.4 254.1C288.64 254.22 291.58 254.28 294.22 254.28C296.98 254.28 298.9 254.28 299.98 254.28C301.66 254.28 302.8 254.04 303.4 253.56C304 253.08 304.3 252.24 304.3 251.04V177.42ZM254.98 170.04H354.7V194.88H254.98V170.04ZM211.96 195.42L234.82 172.38L238.24 173.64V281.1H211.96V195.42ZM232.12 149.7L256.96 159.24C252.28 167.4 246.76 175.62 240.4 183.9C234.16 192.18 227.56 199.98 220.6 207.3C213.76 214.62 207.04 220.98 200.44 226.38C199.24 224.46 197.56 222.06 195.4 219.18C193.36 216.3 191.2 213.42 188.92 210.54C186.64 207.66 184.6 205.32 182.8 203.52C188.92 199.32 194.98 194.34 200.98 188.58C207.1 182.7 212.86 176.46 218.26 169.86C223.66 163.14 228.28 156.42 232.12 149.7ZM225.46 110.1L250.66 120.54C246.1 126.42 240.94 132.42 235.18 138.54C229.54 144.54 223.6 150.24 217.36 155.64C211.24 161.04 205.18 165.78 199.18 169.86C198.1 167.82 196.72 165.48 195.04 162.84C193.36 160.08 191.62 157.38 189.82 154.74C188.02 152.1 186.34 149.94 184.78 148.26C189.82 145.14 194.92 141.42 200.08 137.1C205.24 132.66 210.04 128.1 214.48 123.42C219.04 118.62 222.7 114.18 225.46 110.1ZM449.74 147.72H509.86V170.4H449.74V147.72ZM460.72 110.46H484.48V179.04C484.48 188.28 484.18 197.58 483.58 206.94C482.98 216.18 481.66 225.3 479.62 234.3C477.7 243.3 474.7 251.88 470.62 260.04C466.66 268.2 461.32 275.76 454.6 282.72C453.04 281.04 451.06 279.12 448.66 276.96C446.26 274.92 443.74 272.94 441.1 271.02C438.58 269.1 436.24 267.6 434.08 266.52C440.08 260.52 444.88 254.1 448.48 247.26C452.08 240.42 454.72 233.28 456.4 225.84C458.2 218.28 459.34 210.6 459.82 202.8C460.42 194.88 460.72 186.96 460.72 179.04V110.46ZM368.2 125.94H447.76V148.26H368.2V125.94ZM365.68 231.24H448.48V253.92H365.68V231.24ZM396.1 110.28H420.58V164.64H396.1V110.28ZM398.8 164.64H417.52V213.42H420.22V280.92H396.1V213.42H398.8V164.64ZM391.6 197.94V205.32H425.44V197.94H391.6ZM391.6 174V181.38H425.44V174H391.6ZM371.98 156.18H445.96V223.14H371.98V156.18ZM491.68 147.72H515.62V250.14C515.62 251.46 515.74 252.48 515.98 253.2C516.22 253.56 516.46 253.86 516.7 254.1C517.06 254.34 517.42 254.46 517.78 254.46C518.02 254.46 518.26 254.46 518.5 254.46C518.74 254.46 519.04 254.46 519.4 254.46C519.64 254.46 519.94 254.4 520.3 254.28C520.66 254.04 520.96 253.68 521.2 253.2C521.44 252.6 521.62 251.82 521.74 250.86C521.86 249.9 521.98 248.88 522.1 247.8C522.34 245.88 522.46 243 522.46 239.16C522.58 235.2 522.58 230.7 522.46 225.66C524.62 227.58 527.32 229.44 530.56 231.24C533.8 233.04 536.86 234.42 539.74 235.38C539.62 238.86 539.44 242.46 539.2 246.18C539.08 249.9 538.84 253.32 538.48 256.44C538.24 259.56 537.94 262.02 537.58 263.82C536.38 269.22 534.28 273.24 531.28 275.88C529.72 277.08 527.92 278.04 525.88 278.76C523.96 279.48 521.98 279.84 519.94 279.84C518.38 279.84 516.64 279.84 514.72 279.84C512.92 279.84 511.3 279.84 509.86 279.84C507.22 279.84 504.64 279.36 502.12 278.4C499.6 277.56 497.5 276.12 495.82 274.08C494.26 272.16 493.18 269.82 492.58 267.06C491.98 264.3 491.68 259.5 491.68 252.66V147.72ZM575.38 137.82V157.44H590.14V137.82H575.38ZM553.96 116.4H612.82V178.86H553.96V116.4ZM576.28 169.68H598.06V251.58H576.28V169.68ZM551.8 189.12H571.78V256.44H551.8V189.12ZM544.24 247.44C550.12 246.36 556.78 245.1 564.22 243.66C571.66 242.1 579.52 240.48 587.8 238.8C596.08 237 604.3 235.2 612.46 233.4L614.98 255.18C603.7 258.06 592.24 260.88 580.6 263.64C568.96 266.28 558.4 268.74 548.92 271.02L544.24 247.44ZM585.64 195.6H612.46V217.56H585.64V195.6ZM616.24 137.28H715.24V162.12H616.24V137.28ZM666.28 154.56H690.4V253.92C690.4 259.68 689.86 264.36 688.78 267.96C687.7 271.56 685.42 274.38 681.94 276.42C678.58 278.46 674.56 279.78 669.88 280.38C665.32 280.98 660.04 281.28 654.04 281.28C653.8 277.8 653.02 273.6 651.7 268.68C650.38 263.88 648.88 259.68 647.2 256.08C650.44 256.2 653.62 256.32 656.74 256.44C659.86 256.44 662.02 256.44 663.22 256.44C664.42 256.32 665.2 256.08 665.56 255.72C666.04 255.36 666.28 254.64 666.28 253.56V154.56ZM620.92 176.16L642.52 180.12C640.84 190.56 638.44 200.76 635.32 210.72C632.2 220.56 628.54 228.84 624.34 235.56C623.02 234.36 621.22 233.04 618.94 231.6C616.66 230.04 614.32 228.54 611.92 227.1C609.52 225.66 607.48 224.52 605.8 223.68C609.64 217.92 612.82 210.78 615.34 202.26C617.86 193.74 619.72 185.04 620.92 176.16ZM682.84 181.56L703 173.46C705.64 178.98 708.04 184.92 710.2 191.28C712.48 197.52 714.4 203.7 715.96 209.82C717.64 215.82 718.84 221.28 719.56 226.2L697.78 235.2C697.3 230.28 696.34 224.76 694.9 218.64C693.46 212.4 691.66 206.04 689.5 199.56C687.46 193.08 685.24 187.08 682.84 181.56ZM640 146.82H661.96V190.92C661.96 198.72 661.48 206.64 660.52 214.68C659.68 222.72 657.94 230.7 655.3 238.62C652.66 246.42 648.76 253.92 643.6 261.12C638.56 268.32 631.9 274.98 623.62 281.1C621.58 278.34 618.82 275.4 615.34 272.28C611.86 269.16 608.62 266.46 605.62 264.18C613.18 258.78 619.24 253.08 623.8 247.08C628.36 240.96 631.78 234.72 634.06 228.36C636.46 222 638.02 215.64 638.74 209.28C639.58 202.92 640 196.74 640 190.74V146.82ZM647.74 115.68L671.5 109.02C673.66 113.1 675.82 117.6 677.98 122.52C680.26 127.44 681.82 131.7 682.66 135.3L657.46 142.86C656.74 139.38 655.42 135.06 653.5 129.9C651.7 124.74 649.78 120 647.74 115.68ZM758.26 275.7C753.34 275.7 748.78 274.44 744.58 271.92C740.38 269.52 737.02 266.22 734.5 262.02C732.1 257.82 730.9 253.14 730.9 247.98C730.9 242.94 732.1 238.38 734.5 234.3C737.02 230.1 740.32 226.8 744.4 224.4C748.6 221.88 753.22 220.62 758.26 220.62C763.42 220.62 768.04 221.88 772.12 224.4C776.32 226.8 779.62 230.1 782.02 234.3C784.54 238.38 785.8 242.94 785.8 247.98C785.8 253.14 784.54 257.82 782.02 262.02C779.62 266.22 776.32 269.52 772.12 271.92C767.92 274.44 763.3 275.7 758.26 275.7ZM758.26 264C762.7 264 766.42 262.44 769.42 259.32C772.54 256.08 774.1 252.36 774.1 248.16C774.1 243.84 772.6 240.12 769.6 237C766.6 233.76 762.82 232.14 758.26 232.14C753.82 232.14 750.04 233.7 746.92 236.82C743.92 239.94 742.42 243.72 742.42 248.16C742.42 252.48 743.92 256.2 746.92 259.32C750.04 262.44 753.82 264 758.26 264Z" fill="#FFFF3C"/>
<path d="M2.52 31.232H69.624V42.68H2.52V31.232ZM110.016 6.536H120.096V43.256C120.096 44.984 120.264 46.064 120.6 46.496C120.936 46.928 121.752 47.144 123.048 47.144C123.336 47.144 123.792 47.144 124.416 47.144C125.04 47.144 125.712 47.144 126.432 47.144C127.152 47.144 127.824 47.144 128.448 47.144C129.072 47.144 129.528 47.144 129.816 47.144C130.584 47.144 131.16 46.952 131.544 46.568C131.976 46.136 132.288 45.368 132.48 44.264C132.72 43.16 132.888 41.552 132.984 39.44C134.088 40.208 135.504 40.976 137.232 41.744C139.008 42.464 140.592 42.992 141.984 43.328C141.648 46.592 141.072 49.184 140.256 51.104C139.44 53.024 138.264 54.392 136.728 55.208C135.24 56.024 133.272 56.432 130.824 56.432C130.44 56.432 129.912 56.432 129.24 56.432C128.616 56.432 127.92 56.432 127.152 56.432C126.432 56.432 125.688 56.432 124.92 56.432C124.2 56.432 123.528 56.432 122.904 56.432C122.28 56.432 121.776 56.432 121.392 56.432C118.512 56.432 116.232 56.072 114.552 55.352C112.92 54.584 111.744 53.264 111.024 51.392C110.352 49.472 110.016 46.784 110.016 43.328V6.536ZM114.264 6.536H138.528V34.616H114.264V25.4H128.376V15.68H114.264V6.536ZM76.824 10.064H106.704V19.064H76.824V10.064ZM74.736 24.392H108.504V33.536H74.736V24.392ZM94.176 39.656H107.856V48.656H94.176V39.656ZM86.832 3.728H96.624V29.36H86.832V3.728ZM88.92 30.152H98.496V61.616H88.92V30.152ZM84.744 43.112C85.704 46.904 86.928 49.928 88.416 52.184C89.952 54.44 91.8 56.144 93.96 57.296C96.12 58.4 98.616 59.144 101.448 59.528C104.28 59.864 107.496 60.032 111.096 60.032C112.2 60.032 113.568 60.056 115.2 60.104C116.832 60.104 118.632 60.104 120.6 60.104C122.568 60.056 124.584 60.032 126.648 60.032C128.76 60.032 130.824 60.032 132.84 60.032C134.856 59.984 136.728 59.936 138.456 59.888C140.232 59.792 141.768 59.72 143.064 59.672C142.536 60.44 142.008 61.448 141.48 62.696C140.952 63.896 140.472 65.144 140.04 66.44C139.656 67.784 139.344 68.984 139.104 70.04H134.136H111.024C106.32 70.04 102.144 69.728 98.496 69.104C94.896 68.528 91.728 67.376 88.992 65.648C86.304 63.92 84 61.424 82.08 58.16C80.208 54.848 78.624 50.528 77.328 45.2L84.744 43.112ZM76.608 36.848L86.112 37.568C86.016 42.128 85.8 46.592 85.464 50.96C85.176 55.28 84.696 59.336 84.024 63.128C83.352 66.872 82.464 70.16 81.36 72.992C80.736 72.56 79.872 72.056 78.768 71.48C77.712 70.952 76.608 70.424 75.456 69.896C74.304 69.368 73.344 68.96 72.576 68.672C73.68 66.224 74.496 63.296 75.024 59.888C75.6 56.48 76.008 52.808 76.248 48.872C76.488 44.936 76.608 40.928 76.608 36.848ZM177.48 7.04H210.384V43.472H199.584V17.84H177.48V7.04ZM184.032 29H204.84V39.296H184.032V29ZM178.704 29H189.72V57.008C189.72 58.64 189.912 59.672 190.296 60.104C190.68 60.536 191.592 60.752 193.032 60.752C193.272 60.752 193.632 60.752 194.112 60.752C194.64 60.752 195.192 60.752 195.768 60.752C196.344 60.752 196.92 60.752 197.496 60.752C198.12 60.752 198.672 60.752 199.152 60.752C199.68 60.752 200.088 60.752 200.376 60.752C201.384 60.752 202.128 60.44 202.608 59.816C203.136 59.192 203.496 57.992 203.688 56.216C203.928 54.44 204.12 51.848 204.264 48.44C205.08 49.016 206.064 49.616 207.216 50.24C208.416 50.816 209.616 51.344 210.816 51.824C212.064 52.256 213.168 52.592 214.128 52.832C213.792 57.296 213.192 60.8 212.328 63.344C211.464 65.888 210.168 67.688 208.44 68.744C206.712 69.848 204.336 70.4 201.312 70.4C200.928 70.4 200.4 70.4 199.728 70.4C199.056 70.4 198.312 70.4 197.496 70.4C196.728 70.4 195.936 70.4 195.12 70.4C194.352 70.4 193.632 70.4 192.96 70.4C192.288 70.4 191.76 70.4 191.376 70.4C188.208 70.4 185.688 69.992 183.816 69.176C181.992 68.408 180.672 67.04 179.856 65.072C179.088 63.152 178.704 60.488 178.704 57.08V29ZM164.448 33.464L172.008 30.512C172.776 32.048 173.52 33.728 174.24 35.552C175.008 37.376 175.68 39.152 176.256 40.88C176.88 42.56 177.336 44.048 177.624 45.344L169.56 48.872C169.32 47.528 168.912 45.968 168.336 44.192C167.808 42.416 167.208 40.592 166.536 38.72C165.864 36.848 165.168 35.096 164.448 33.464ZM157.32 52.832L165.528 50.744C166.056 53.384 166.512 56.24 166.896 59.312C167.28 62.336 167.544 65 167.688 67.304L158.976 69.536C158.976 68 158.88 66.272 158.688 64.352C158.544 62.432 158.352 60.464 158.112 58.448C157.872 56.432 157.608 54.56 157.32 52.832ZM148.32 51.68L156.96 53.048C156.816 56.36 156.48 59.624 155.952 62.84C155.424 66.056 154.776 68.768 154.008 70.976C153.384 70.592 152.544 70.208 151.488 69.824C150.48 69.488 149.448 69.152 148.392 68.816C147.336 68.48 146.448 68.216 145.728 68.024C146.544 65.96 147.144 63.464 147.528 60.536C147.912 57.56 148.176 54.608 148.32 51.68ZM148.968 32.96C148.824 32.336 148.56 31.496 148.176 30.44C147.84 29.336 147.456 28.208 147.024 27.056C146.64 25.904 146.256 24.92 145.872 24.104C146.64 23.864 147.36 23.432 148.032 22.808C148.704 22.136 149.4 21.272 150.12 20.216C150.504 19.688 151.032 18.848 151.704 17.696C152.424 16.544 153.192 15.176 154.008 13.592C154.824 11.96 155.64 10.232 156.456 8.408C157.272 6.536 157.992 4.64 158.616 2.72L167.976 6.608C166.248 10.4 164.16 14.216 161.712 18.056C159.312 21.896 156.912 25.232 154.512 28.064V28.28C154.512 28.28 154.224 28.448 153.648 28.784C153.12 29.12 152.472 29.528 151.704 30.008C150.984 30.488 150.336 30.992 149.76 31.52C149.232 32.048 148.968 32.528 148.968 32.96ZM148.968 32.96L148.68 25.688L152.784 22.952L165.24 22.16C164.952 23.456 164.688 24.92 164.448 26.552C164.256 28.184 164.136 29.528 164.088 30.584C161.352 30.824 159.096 31.064 157.32 31.304C155.544 31.496 154.104 31.688 153 31.88C151.944 32.024 151.104 32.192 150.48 32.384C149.856 32.576 149.352 32.768 148.968 32.96ZM149.544 49.952C149.4 49.328 149.136 48.44 148.752 47.288C148.368 46.136 147.936 44.96 147.456 43.76C147.024 42.512 146.616 41.456 146.232 40.592C147.336 40.352 148.344 39.824 149.256 39.008C150.168 38.192 151.248 37.112 152.496 35.768C153.168 35.096 154.104 33.992 155.304 32.456C156.504 30.872 157.824 29 159.264 26.84C160.752 24.68 162.216 22.352 163.656 19.856C165.144 17.36 166.464 14.84 167.616 12.296L176.328 17.912C174.552 21.176 172.512 24.416 170.208 27.632C167.904 30.848 165.48 33.944 162.936 36.92C160.392 39.848 157.848 42.512 155.304 44.912V45.2C155.304 45.2 155.016 45.368 154.44 45.704C153.864 46.04 153.192 46.448 152.424 46.928C151.656 47.408 150.984 47.936 150.408 48.512C149.832 49.04 149.544 49.52 149.544 49.952ZM149.544 49.952L148.968 42.32L153.144 39.44L171.576 36.992C171.384 38.288 171.216 39.776 171.072 41.456C170.976 43.088 170.952 44.432 171 45.488C166.92 46.112 163.584 46.664 160.992 47.144C158.4 47.576 156.36 47.96 154.872 48.296C153.384 48.632 152.232 48.92 151.416 49.16C150.648 49.4 150.024 49.664 149.544 49.952ZM166.032 51.032L173.736 48.44C174.552 50.6 175.344 52.952 176.112 55.496C176.928 57.992 177.552 60.152 177.984 61.976L169.848 65C169.512 63.128 168.96 60.896 168.192 58.304C167.472 55.664 166.752 53.24 166.032 51.032ZM223.272 21.512H240.48V30.152H223.272V21.512ZM218.808 33.968H244.152V42.752H218.808V33.968ZM218.232 45.488L224.856 43.76C225.384 45.632 225.888 47.672 226.368 49.88C226.896 52.088 227.256 53.984 227.448 55.568L220.464 57.584C220.32 55.904 220.032 53.96 219.6 51.752C219.168 49.496 218.712 47.408 218.232 45.488ZM217.584 60.824C220.848 60.44 224.808 59.936 229.464 59.312C234.12 58.688 238.848 58.04 243.648 57.368L244.152 65.504C239.928 66.368 235.656 67.184 231.336 67.952C227.064 68.768 223.152 69.512 219.6 70.184L217.584 60.824ZM239.184 43.544L245.664 45.056C245.04 47.072 244.44 49.136 243.864 51.248C243.336 53.312 242.808 55.064 242.28 56.504L237.096 55.136C237.384 54.032 237.648 52.808 237.888 51.464C238.176 50.072 238.44 48.68 238.68 47.288C238.92 45.896 239.088 44.648 239.184 43.544ZM227.808 24.968H236.16V63.488L227.808 65.144V24.968ZM230.328 2.936L238.032 5.888C236.688 8.816 235.056 11.768 233.136 14.744C231.216 17.672 229.128 20.456 226.872 23.096C224.664 25.688 222.384 27.968 220.032 29.936C219.984 29.216 219.792 28.208 219.456 26.912C219.12 25.568 218.736 24.2 218.304 22.808C217.872 21.416 217.464 20.312 217.08 19.496C219.576 17.48 222.024 15.032 224.424 12.152C226.872 9.224 228.84 6.152 230.328 2.936ZM229.248 11.576L234.72 5.744C236.16 7.088 237.744 8.576 239.472 10.208C241.248 11.84 242.928 13.448 244.512 15.032C246.144 16.568 247.464 17.912 248.472 19.064L242.64 25.832C241.68 24.584 240.408 23.144 238.824 21.512C237.288 19.832 235.656 18.128 233.928 16.4C232.248 14.624 230.688 13.016 229.248 11.576ZM278.784 38.072L285.696 43.832C284.208 45.368 282.648 46.904 281.016 48.44C279.432 49.976 278.016 51.272 276.768 52.328L271.152 47.216C271.92 46.448 272.76 45.56 273.672 44.552C274.632 43.496 275.568 42.392 276.48 41.24C277.392 40.088 278.16 39.032 278.784 38.072ZM244.8 42.968L251.64 38.072C252.792 39.32 254.04 40.76 255.384 42.392C256.776 43.976 257.832 45.368 258.552 46.568L251.28 52.04C250.896 51.224 250.32 50.288 249.552 49.232C248.832 48.176 248.04 47.096 247.176 45.992C246.36 44.888 245.568 43.88 244.8 42.968ZM255.312 9.272H273.528V17.048H255.312V9.272ZM253.8 19.64H272.016V27.416H253.8V19.64ZM245.232 29.36H285.768V38.432H245.232V29.36ZM259.776 35.192H269.352V62.336C269.352 64.4 269.136 66.056 268.704 67.304C268.32 68.6 267.456 69.608 266.112 70.328C264.864 71 263.424 71.432 261.792 71.624C260.16 71.816 258.288 71.912 256.176 71.912C256.032 70.616 255.696 69.104 255.168 67.376C254.64 65.696 254.064 64.256 253.44 63.056C254.448 63.104 255.48 63.128 256.536 63.128C257.64 63.128 258.36 63.128 258.696 63.128C259.416 63.128 259.776 62.816 259.776 62.192V35.192ZM242.928 58.736C244.608 57.872 246.624 56.744 248.976 55.352C251.328 53.912 253.752 52.448 256.248 50.96L259.2 58.52C257.424 59.864 255.552 61.232 253.584 62.624C251.664 64.016 249.816 65.336 248.04 66.584L242.928 58.736ZM253.224 3.368L262.872 4.376C262.296 6.968 261.672 9.68 261 12.512C260.328 15.296 259.656 17.984 258.984 20.576C258.312 23.168 257.664 25.448 257.04 27.416H247.176C247.848 25.304 248.544 22.88 249.264 20.144C250.032 17.408 250.752 14.576 251.424 11.648C252.144 8.72 252.744 5.96 253.224 3.368ZM270.72 9.272H271.8L273.384 8.912L280.512 9.848C280.176 12.344 279.744 14.912 279.216 17.552C278.736 20.144 278.232 22.712 277.704 25.256C277.176 27.752 276.648 30.128 276.12 32.384L266.616 31.16C267.192 28.808 267.744 26.336 268.272 23.744C268.8 21.152 269.28 18.68 269.712 16.328C270.144 13.928 270.48 11.912 270.72 10.28V9.272ZM269.352 57.584L274.824 51.392C276.072 52.208 277.464 53.12 279 54.128C280.536 55.136 282.024 56.144 283.464 57.152C284.904 58.16 286.08 59.048 286.992 59.816L281.232 66.8C280.416 65.984 279.312 65.048 277.92 63.992C276.528 62.888 275.064 61.784 273.528 60.68C272.04 59.528 270.648 58.496 269.352 57.584ZM319.896 3.656L330.192 6.032C329.136 9.776 327.84 13.496 326.304 17.192C324.816 20.84 323.184 24.272 321.408 27.488C319.632 30.656 317.76 33.416 315.792 35.768C315.168 35.144 314.328 34.4 313.272 33.536C312.264 32.624 311.232 31.76 310.176 30.944C309.12 30.08 308.184 29.384 307.368 28.856C309.24 26.888 310.968 24.56 312.552 21.872C314.136 19.184 315.552 16.28 316.8 13.16C318.048 10.04 319.08 6.872 319.896 3.656ZM317.448 36.488L327.6 38.576C326.976 41.552 326.16 44.528 325.152 47.504C324.192 50.432 323.112 53.192 321.912 55.784C320.712 58.376 319.464 60.632 318.168 62.552C317.544 61.976 316.68 61.328 315.576 60.608C314.472 59.888 313.344 59.192 312.192 58.52C311.088 57.848 310.128 57.32 309.312 56.936C311.232 54.536 312.888 51.488 314.28 47.792C315.672 44.048 316.728 40.28 317.448 36.488ZM322.776 15.824H350.712V25.472H318.888L322.776 15.824ZM329.4 20.144H339.768V60.464C339.768 62.816 339.528 64.736 339.048 66.224C338.568 67.76 337.584 68.96 336.096 69.824C334.656 70.64 333 71.192 331.128 71.48C329.304 71.768 327.192 71.912 324.792 71.912C324.6 70.376 324.144 68.576 323.424 66.512C322.752 64.496 322.032 62.792 321.264 61.4C322.656 61.448 324.024 61.472 325.368 61.472C326.712 61.472 327.624 61.472 328.104 61.472C328.584 61.472 328.92 61.4 329.112 61.256C329.304 61.112 329.4 60.8 329.4 60.32V20.144ZM340.848 38.792L350.208 35.624C351.408 38.072 352.488 40.688 353.448 43.472C354.456 46.208 355.296 48.92 355.968 51.608C356.688 54.248 357.192 56.648 357.48 58.808L347.4 62.336C347.208 60.224 346.8 57.8 346.176 55.064C345.552 52.328 344.784 49.544 343.872 46.712C342.96 43.88 341.952 41.24 340.848 38.792ZM347.976 15.824H349.344L350.928 15.536L358.344 16.832C357.96 19.904 357.48 23.072 356.904 26.336C356.328 29.552 355.776 32.288 355.248 34.544L346.32 32.96C346.512 31.616 346.704 30.056 346.896 28.28C347.136 26.456 347.352 24.584 347.544 22.664C347.736 20.696 347.88 18.848 347.976 17.12V15.824ZM303.984 3.728L313.848 6.824C312.312 10.904 310.488 15.032 308.376 19.208C306.264 23.384 303.96 27.344 301.464 31.088C299.016 34.832 296.472 38.096 293.832 40.88C293.544 40.016 293.064 38.888 292.392 37.496C291.768 36.104 291.072 34.712 290.304 33.32C289.584 31.88 288.936 30.728 288.36 29.864C290.424 27.752 292.416 25.304 294.336 22.52C296.304 19.736 298.104 16.736 299.736 13.52C301.416 10.304 302.832 7.04 303.984 3.728ZM297.36 24.392L307.296 14.456V14.528V71.768H297.36V24.392ZM370.8 15.176H393.048V64.496H370.8V55.352H383.616V24.248H370.8V15.176ZM364.752 15.176H374.184V69.608H364.752V15.176ZM370.512 33.968H388.08V42.968H370.512V33.968ZM374.544 3.44L385.992 5.024C385.128 7.568 384.24 10.064 383.328 12.512C382.464 14.96 381.672 17.048 380.952 18.776L372.6 16.976C372.888 15.68 373.152 14.24 373.392 12.656C373.68 11.072 373.92 9.488 374.112 7.904C374.352 6.272 374.496 4.784 374.544 3.44ZM402.12 14.456H422.568V23.96H402.12V14.456ZM418.968 14.456H428.616C428.616 14.456 428.616 14.744 428.616 15.32C428.616 15.896 428.616 16.544 428.616 17.264C428.616 17.984 428.592 18.56 428.544 18.992C428.352 27.008 428.136 33.824 427.896 39.44C427.656 45.056 427.368 49.712 427.032 53.408C426.696 57.056 426.288 59.936 425.808 62.048C425.328 64.112 424.704 65.648 423.936 66.656C422.832 68.24 421.68 69.32 420.48 69.896C419.28 70.52 417.888 70.976 416.304 71.264C414.864 71.504 413.088 71.624 410.976 71.624C408.912 71.624 406.8 71.6 404.64 71.552C404.592 70.16 404.232 68.48 403.56 66.512C402.936 64.544 402.144 62.84 401.184 61.4C403.488 61.592 405.624 61.712 407.592 61.76C409.608 61.808 411.096 61.832 412.056 61.832C412.776 61.832 413.352 61.736 413.784 61.544C414.264 61.352 414.744 61.016 415.224 60.536C415.8 59.912 416.28 58.64 416.664 56.72C417.096 54.752 417.432 52.016 417.672 48.512C417.96 44.96 418.2 40.544 418.392 35.264C418.632 29.936 418.824 23.648 418.968 16.4V14.456ZM401.616 3.656L411.696 6.032C410.736 9.536 409.56 13.064 408.168 16.616C406.824 20.12 405.36 23.432 403.776 26.552C402.192 29.672 400.584 32.384 398.952 34.688C398.328 34.112 397.488 33.44 396.432 32.672C395.376 31.856 394.296 31.088 393.192 30.368C392.136 29.6 391.2 29 390.384 28.568C391.968 26.6 393.456 24.272 394.848 21.584C396.288 18.896 397.584 16.016 398.736 12.944C399.888 9.824 400.848 6.728 401.616 3.656ZM397.944 36.416L406.152 31.808C407.256 33.44 408.432 35.24 409.68 37.208C410.976 39.128 412.2 41.024 413.352 42.896C414.552 44.72 415.512 46.352 416.232 47.792L407.376 53.192C406.752 51.704 405.888 50 404.784 48.08C403.728 46.16 402.6 44.192 401.4 42.176C400.2 40.112 399.048 38.192 397.944 36.416Z" fill="#FFFF3C"/>
</svg>
