<svg width="16" height="16" viewBox="0 0 16 16" fill="none" xmlns="http://www.w3.org/2000/svg">
<path d="M15.7413 10.1572C16.087 10.3914 16.087 10.7717 15.7413 11.0059L8.62699 15.8242C8.28124 16.0584 7.71982 16.0584 7.37406 15.8242L0.259807 11.0059C-0.0859512 10.7717 -0.0859512 10.3914 0.259807 10.1572L3.44438 8L4.47367 8.69727L1.69145 10.582L7.98735 14.8457H8.01371L14.3096 10.582L11.5264 8.69727L12.5557 8L15.7413 10.1572Z" fill="white"/>
<path fill-rule="evenodd" clip-rule="evenodd" d="M7.98637 1.15444L1.69089 5.41828L7.98637 9.68212C7.99051 9.68249 7.9951 9.68271 8 9.68271C8.0049 9.68271 8.00949 9.68249 8.01363 9.68212L14.3091 5.41828L8.01363 1.15444C8.00949 1.15408 8.0049 1.15386 8 1.15386C7.9951 1.15386 7.9905 1.15408 7.98637 1.15444ZM8.62605 0.175632C8.28029 -0.0585444 7.71971 -0.058544 7.37395 0.175633L0.259318 4.99427C-0.0864398 5.22844 -0.0864391 5.60812 0.259319 5.8423L7.37395 10.6609C7.71971 10.8951 8.28029 10.8951 8.62605 10.6609L15.7407 5.8423C16.0864 5.60812 16.0864 5.22844 15.7407 4.99427L8.62605 0.175632Z" fill="white"/>
</svg>
