<svg width="32" height="32" viewBox="0 0 32 32" fill="none" xmlns="http://www.w3.org/2000/svg">
<path d="M17.6549 19.6464C17.5289 19.7723 17.3716 19.8626 17.1992 19.9074L12.0851 21.2332C11.347 21.4244 10.6743 20.7518 10.8656 20.0137L12.1921 14.9003C12.2369 14.7279 12.3272 14.5705 12.4531 14.4446L22.4914 4.4063L27.6932 9.60809L17.6549 19.6464ZM31.3924 4.49469C31.7829 4.88521 31.7829 5.51837 31.3924 5.9089L28.9935 8.30781L23.7917 3.10602L26.1906 0.707107C26.5811 0.316583 27.2143 0.316583 27.6048 0.707107L31.3924 4.49469Z" fill="#F0F0F0"/>
<path d="M16.2188 0V3.29883H4.61816C3.88969 3.29904 3.29904 3.88969 3.29883 4.61816V27.3818C3.29904 28.1103 3.88969 28.701 4.61816 28.7012H27.3818C28.1103 28.701 28.701 28.1103 28.7012 27.3818V16H32V27.3818C31.9998 29.9323 29.9323 31.9998 27.3818 32H4.61816C2.06772 31.9998 0.000212628 29.9323 0 27.3818V4.61816C0.000212437 2.06772 2.06772 0.000212097 4.61816 0H16.2188Z" fill="#F0F0F0"/>
</svg>
