<svg width="32" height="32" viewBox="0 0 32 32" fill="none" xmlns="http://www.w3.org/2000/svg">
<path d="M15.1906 0.268589C15.6214 -0.0895298 16.3786 -0.0895294 16.8094 0.268589L31.7244 12.6681C32.3451 13.1842 31.8494 14 30.915 14H1.08502C0.15064 14 -0.34512 13.1842 0.275648 12.6681L15.1906 0.268589Z" fill="#F0F0F0"/>
<path d="M32 31.0002C31.9999 31.5524 31.5522 32.0002 31 32.0002H20.001V24.4758C20.0007 22.3987 18.2095 20.7146 16.001 20.7141C13.792 20.7141 12.0012 22.3984 12.001 24.4758V32.0002H1C0.447797 32.0002 0.000131918 31.5524 0 31.0002V13.1907H32V31.0002Z" fill="#F0F0F0"/>
</svg>
