<svg width="32" height="32" viewBox="0 0 32 32" fill="none" xmlns="http://www.w3.org/2000/svg">
<path d="M15.1906 0.345328C15.6214 -0.11511 16.3786 -0.115109 16.8094 0.345329L31.7244 16.2876C32.3451 16.9511 31.8494 18 30.915 18H1.08502C0.15064 18 -0.34512 16.9511 0.275648 16.2876L15.1906 0.345328Z" fill="#F0F0F0"/>
<path d="M25 16C25.5523 16 26 16.4477 26 17V31C26 31.5523 25.5523 32 25 32H20V26C20 23.7909 18.2091 22 16 22C13.7909 22 12 23.7909 12 26V32H7C6.44772 32 6 31.5523 6 31V17C6 16.4477 6.44772 16 7 16H25Z" fill="#F0F0F0"/>
</svg>
