<svg width="32" height="32" viewBox="0 0 32 32" fill="none" xmlns="http://www.w3.org/2000/svg">
<mask id="path-1-inside-1_155_155" fill="white">
<path d="M0 16C0 14.8954 0.895431 14 2 14H6C7.10457 14 8 14.8954 8 16V30C8 31.1046 7.10457 32 6 32H2C0.895431 32 0 31.1046 0 30V16Z"/>
</mask>
<path d="M0 16C0 14.8954 0.895431 14 2 14H6C7.10457 14 8 14.8954 8 16V30C8 31.1046 7.10457 32 6 32H2C0.895431 32 0 31.1046 0 30V16Z" fill="#F0F0F0" stroke="#F0F0F0" stroke-width="8" mask="url(#path-1-inside-1_155_155)"/>
<mask id="path-2-inside-2_155_155" fill="white">
<path d="M12 2C12 0.895431 12.8954 0 14 0H18C19.1046 0 20 0.895431 20 2V32H12V2Z"/>
</mask>
<path d="M12 2C12 0.895431 12.8954 0 14 0H18C19.1046 0 20 0.895431 20 2V32H12V2Z" fill="#F0F0F0" stroke="#F0F0F0" stroke-width="8" mask="url(#path-2-inside-2_155_155)"/>
<path d="M28 28V32H4V28H28Z" fill="#F0F0F0"/>
<mask id="path-4-inside-3_155_155" fill="white">
<path d="M24 7C24 5.89543 24.8954 5 26 5H30C31.1046 5 32 5.89543 32 7V30C32 31.1046 31.1046 32 30 32H26C24.8954 32 24 31.1046 24 30V7Z"/>
</mask>
<path d="M24 7C24 5.89543 24.8954 5 26 5H30C31.1046 5 32 5.89543 32 7V30C32 31.1046 31.1046 32 30 32H26C24.8954 32 24 31.1046 24 30V7Z" fill="#F0F0F0" stroke="#F0F0F0" stroke-width="8" mask="url(#path-4-inside-3_155_155)"/>
</svg>
