<svg width="32" height="32" viewBox="0 0 32 32" fill="none" xmlns="http://www.w3.org/2000/svg">
<path d="M24.001 0C28.4193 0 32.001 3.58172 32.001 8V24C32.0008 28.4181 28.4191 32 24.001 32H8C3.58207 31.9997 0.00117461 28.4179 0.000976562 24V8C0.000976562 3.58188 3.58195 0.000263877 8 0H24.001ZM9.50098 5.33301C8.65668 5.33301 8.01721 5.69642 8.58008 6.05957C9.14708 6.42311 21.0523 8.0348 21.335 9.84375C21.7961 12.8084 13.0896 12.9416 8.13574 15.501C6.02718 16.5904 4.7586 18.0436 5.04004 19.8594C5.2792 21.4022 6.17064 23.597 10.3604 24.5801C13.4561 25.3064 22.0159 25.9551 24.5488 25.9551C27.0815 25.9548 26.8637 21.6747 24.2539 21.3115C21.6433 20.9484 10.2824 20.8448 10.001 18.666C9.79473 17.0663 13.247 16.9413 20.001 14.3994C23.501 13.0822 25.0216 10.7805 23.0518 8.60156C20.9149 6.23818 11.2129 5.33301 9.50098 5.33301Z" fill="#F0F0F0"/>
</svg>
