<svg width="32" height="32" viewBox="0 0 32 32" fill="none" xmlns="http://www.w3.org/2000/svg">
<path d="M16 0C24.8366 0 32 7.16344 32 16C32 24.8366 24.8366 32 16 32C7.16344 32 0 24.8366 0 16C0 7.16344 7.16344 0 16 0ZM16 12.5C14.6193 12.5 13.5 13.7055 13.5 15.1924V23.8076C13.5 25.2945 14.6193 26.5 16 26.5C17.3807 26.5 18.5 25.2945 18.5 23.8076V15.1924C18.5 13.7055 17.3807 12.5 16 12.5ZM16 5.5C14.6193 5.5 13.5 6.61929 13.5 8C13.5 9.38071 14.6193 10.5 16 10.5C17.3807 10.5 18.5 9.38071 18.5 8C18.5 6.61929 17.3807 5.5 16 5.5Z" fill="#F0F0F0"/>
</svg>
