<svg width="34" height="33" viewBox="0 0 34 33" fill="none" xmlns="http://www.w3.org/2000/svg">
<path fill-rule="evenodd" clip-rule="evenodd" d="M9 0.5C4.58172 0.5 1 4.08172 1 8.5V24.5C1 28.9183 4.58172 32.5 9 32.5H25C29.4183 32.5 33 28.9183 33 24.5V8.5C33 4.08172 29.4183 0.5 25 0.5H9ZM12.1562 7.70992C15.8317 8.37004 22.1296 9.50115 22.3333 10.7292C22.6115 12.4059 19.5535 13.1165 15.9957 13.9432C13.6559 14.4869 11.0999 15.0809 9.13458 16.0329C7.02607 17.0543 5.75744 18.4161 6.03887 20.1185C6.27801 21.5649 7.16964 23.6228 11.3597 24.5444C14.4554 25.2254 23.0144 25.8333 25.5472 25.8333C28.0801 25.8333 27.8627 21.8208 25.2529 21.4803C24.6541 21.4022 23.5944 21.3369 22.3135 21.2579C18.0123 20.9928 11.2168 20.574 11 19C10.8668 18.0331 12.2539 17.6409 15.0658 16.846C16.6161 16.4077 18.5995 15.847 21 15C24.5 13.765 26.0203 11.6069 24.0503 9.56415C21.9135 7.34846 12.2119 6.5 10.5 6.5C9.65571 6.5 9.01593 6.84046 9.57879 7.18092C9.73418 7.27492 10.7545 7.45817 12.1562 7.70992Z" fill="#FFFF3C"/>
<path d="M22.3333 10.7292L21.8401 10.811L21.8401 10.811L22.3333 10.7292ZM12.1562 7.70992L12.2446 7.21779L12.2446 7.21779L12.1562 7.70992ZM15.9957 13.9432L15.8826 13.4562L15.8826 13.4562L15.9957 13.9432ZM9.13458 16.0329L9.35256 16.4829L9.35256 16.4829L9.13458 16.0329ZM6.03887 20.1185L5.54557 20.2L5.54557 20.2L6.03887 20.1185ZM11.3597 24.5444L11.2523 25.0328L11.2523 25.0328L11.3597 24.5444ZM25.2529 21.4803L25.3176 20.9845L25.3176 20.9845L25.2529 21.4803ZM22.3135 21.2579L22.3443 20.7589L22.3443 20.7589L22.3135 21.2579ZM11 19L11.4953 18.9318L11.4953 18.9318L11 19ZM15.0658 16.846L15.2018 17.3272L15.2018 17.3272L15.0658 16.846ZM21 15L21.1664 15.4715L21.1664 15.4715L21 15ZM24.0503 9.56415L24.4102 9.21707L24.4102 9.21707L24.0503 9.56415ZM9.57879 7.18092L9.32001 7.60875L9.32001 7.60875L9.57879 7.18092ZM1.5 8.5C1.5 4.35786 4.85786 1 9 1V0C4.30558 0 0.5 3.80558 0.5 8.5H1.5ZM1.5 24.5V8.5H0.5V24.5H1.5ZM9 32C4.85786 32 1.5 28.6421 1.5 24.5H0.5C0.5 29.1944 4.30558 33 9 33V32ZM25 32H9V33H25V32ZM32.5 24.5C32.5 28.6421 29.1421 32 25 32V33C29.6944 33 33.5 29.1944 33.5 24.5H32.5ZM32.5 8.5V24.5H33.5V8.5H32.5ZM25 1C29.1421 1 32.5 4.35786 32.5 8.5H33.5C33.5 3.80558 29.6944 0 25 0V1ZM9 1H25V0H9V1ZM22.8266 10.6473C22.769 10.3004 22.5193 10.0479 22.289 9.87449C22.0441 9.69005 21.7254 9.52402 21.3705 9.37238C20.6574 9.06771 19.706 8.78301 18.6688 8.52173C16.5896 7.99793 14.0784 7.54715 12.2446 7.21779L12.0678 8.20204C13.9095 8.53281 16.385 8.97765 18.4245 9.49143C19.4468 9.74895 20.3377 10.0185 20.9776 10.292C21.2992 10.4294 21.5348 10.5583 21.6876 10.6734C21.855 10.7995 21.8467 10.8509 21.8401 10.811L22.8266 10.6473ZM16.1089 14.4302C17.8717 14.0206 19.5736 13.6268 20.7957 13.1163C21.406 12.8614 21.9476 12.5575 22.3212 12.169C22.7134 11.7611 22.9264 11.2492 22.8266 10.6473L21.8401 10.811C21.8793 11.0475 21.8145 11.2532 21.6003 11.4759C21.3675 11.7181 20.9744 11.9579 20.4103 12.1936C19.2835 12.6642 17.6775 13.0391 15.8826 13.4562L16.1089 14.4302ZM9.35256 16.4829C11.2574 15.5602 13.7535 14.9776 16.1089 14.4302L15.8826 13.4562C13.5583 13.9963 10.9425 14.6016 8.9166 15.5829L9.35256 16.4829ZM6.53217 20.0369C6.31 18.693 7.27698 17.4883 9.35256 16.4829L8.9166 15.5829C6.77515 16.6203 5.20489 18.1393 5.54557 20.2L6.53217 20.0369ZM11.4671 24.0561C9.43993 23.6102 8.26875 22.9025 7.57872 22.1824C6.8922 21.4658 6.64085 20.6943 6.53217 20.0369L5.54557 20.2C5.67603 20.9891 5.99006 21.9697 6.85666 22.8742C7.71976 23.775 9.08943 24.557 11.2523 25.0328L11.4671 24.0561ZM25.5472 25.3333C24.3026 25.3333 21.5468 25.1829 18.7061 24.946C15.8597 24.7086 12.9778 24.3884 11.4671 24.0561L11.2523 25.0328C12.8373 25.3814 15.7828 25.7057 18.623 25.9425C21.4689 26.1798 24.259 26.3333 25.5472 26.3333V25.3333ZM25.1882 21.9761C26.2027 22.1084 26.7766 22.951 26.8295 23.815C26.8557 24.2429 26.7476 24.6284 26.5413 24.8952C26.3459 25.1478 26.034 25.3333 25.5472 25.3333V26.3333C26.3269 26.3333 26.9376 26.0173 27.3323 25.5069C27.716 25.0107 27.8654 24.3717 27.8276 23.754C27.7526 22.5266 26.9129 21.1926 25.3176 20.9845L25.1882 21.9761ZM22.2827 21.757C23.5737 21.8365 24.6109 21.9008 25.1882 21.9761L25.3176 20.9845C24.6972 20.9036 23.6151 20.8372 22.3443 20.7589L22.2827 21.757ZM10.5047 19.0682C10.5571 19.4486 10.8005 19.7327 11.0703 19.9368C11.3422 20.1425 11.695 20.3095 12.0849 20.45C12.8673 20.7319 13.9109 20.9458 15.052 21.1144C17.3408 21.4527 20.1376 21.6248 22.2827 21.757L22.3443 20.7589C20.1883 20.626 17.4367 20.4561 15.1982 20.1252C14.0758 19.9593 13.111 19.7568 12.4239 19.5092C12.0789 19.3849 11.8316 19.2588 11.6736 19.1393C11.5135 19.0182 11.4971 18.9449 11.4953 18.9318L10.5047 19.0682ZM14.9298 16.3649C13.5433 16.7568 12.4445 17.0657 11.717 17.4055C11.3517 17.576 11.0252 17.7781 10.8005 18.0461C10.5566 18.337 10.4517 18.6836 10.5047 19.0682L11.4953 18.9318C11.4817 18.833 11.5002 18.768 11.5668 18.6886C11.6526 18.5862 11.8237 18.4593 12.14 18.3116C12.7757 18.0148 13.7764 17.7301 15.2018 17.3272L14.9298 16.3649ZM20.8336 14.5285C18.4494 15.3698 16.4793 15.9268 14.9298 16.3649L15.2018 17.3272C16.753 16.8886 18.7496 16.3242 21.1664 15.4715L20.8336 14.5285ZM23.6904 9.91124C24.131 10.3682 24.343 10.7963 24.403 11.1791C24.4622 11.5564 24.3818 11.9388 24.148 12.3272C23.6653 13.1292 22.5417 13.9258 20.8336 14.5285L21.1664 15.4715C22.9582 14.8392 24.3448 13.9393 25.0048 12.8428C25.3423 12.282 25.4914 11.6646 25.3909 11.0242C25.2913 10.3892 24.9545 9.78151 24.4102 9.21707L23.6904 9.91124ZM10.5 7C11.3202 7 14.1447 7.20827 17.0328 7.69426C18.4745 7.93685 19.9158 8.24603 21.1216 8.62736C22.3514 9.01629 23.2504 9.45498 23.6904 9.91124L24.4102 9.21707C23.7818 8.56548 22.6668 8.06722 21.4231 7.6739C20.1554 7.27298 18.6636 6.95461 17.1988 6.70812C14.274 6.21596 11.3916 6 10.5 6V7ZM9.83757 6.7531C9.73245 6.68951 9.85223 6.72117 9.86515 6.89353C9.87982 7.08925 9.74036 7.1607 9.78548 7.13118C9.81323 7.11303 9.89011 7.07709 10.0278 7.04693C10.1589 7.01818 10.3211 7 10.5 7V6C10.0384 6 9.55213 6.08883 9.23795 6.29439C9.08794 6.39255 8.84131 6.61295 8.86794 6.96826C8.89282 7.30022 9.1437 7.5021 9.32001 7.60875L9.83757 6.7531ZM12.2446 7.21779C11.5419 7.09159 10.9416 6.98375 10.4972 6.89578C10.2746 6.85171 10.0976 6.81389 9.96951 6.78234C9.90515 6.76649 9.85902 6.75365 9.82843 6.74391C9.78674 6.73062 9.80268 6.732 9.83757 6.7531L9.32001 7.60875C9.39375 7.65335 9.47556 7.68101 9.52489 7.69672C9.58532 7.71597 9.65534 7.73484 9.73039 7.75333C9.88108 7.79044 10.0759 7.83178 10.303 7.87674C10.7581 7.96684 11.3688 8.07649 12.0678 8.20204L12.2446 7.21779Z" fill="#FFFF3C"/>
</svg>
