<svg width="34" height="34" viewBox="0 0 34 34" fill="none" xmlns="http://www.w3.org/2000/svg">
<rect x="1" y="1" width="32" height="32" rx="8" fill="#1E1E1E"/>
<path d="M25 1C29.4183 1 33 4.58172 33 9V25C33 29.4183 29.4183 33 25 33H9C4.58172 33 1 29.4183 1 25V9C1 4.58172 4.58172 1 9 1H25ZM10.5 7C9.65572 7 9.01624 7.3402 9.5791 7.68066C10.1435 8.02126 22.0516 9.53327 22.333 11.2295C22.7935 14.0086 14.0883 14.1337 9.13477 16.5332C7.02635 17.5545 5.7578 18.916 6.03906 20.6182C6.2782 22.0646 7.16949 24.1233 11.3594 25.0449C14.4549 25.7258 23.0136 26.3329 25.5469 26.333C28.0797 26.333 27.8627 22.321 25.2529 21.9805C22.6431 21.64 11.2814 21.5428 11 19.5C10.7933 18 14.2457 17.8832 21 15.5C24.5 14.265 26.0198 12.1072 24.0498 10.0645C21.9129 7.84882 12.2118 7 10.5 7Z" fill="#FFFF3C"/>
<path d="M1 9H0.5H1ZM10.5 7L10.5 6.5H10.5V7ZM9.5791 7.68066L9.32032 8.10849L9.32075 8.10875L9.5791 7.68066ZM22.333 11.2295L22.8263 11.1478L22.8263 11.1477L22.333 11.2295ZM9.13477 16.5332L8.91679 16.0832L8.91679 16.0832L9.13477 16.5332ZM6.03906 20.6182L5.54575 20.6997L5.54576 20.6997L6.03906 20.6182ZM11.3594 25.0449L11.252 25.5332L11.252 25.5332L11.3594 25.0449ZM25.5469 26.333L25.5469 26.833H25.5469V26.333ZM25.2529 21.9805L25.3176 21.4847L25.3176 21.4847L25.2529 21.9805ZM11 19.5L10.5047 19.5682L10.5047 19.5682L11 19.5ZM21 15.5L21.1664 15.9715L21.1664 15.9715L21 15.5ZM24.0498 10.0645L24.4097 9.71737L24.4097 9.71735L24.0498 10.0645ZM25 1V1.5C29.1421 1.5 32.5 4.85786 32.5 9H33H33.5C33.5 4.30558 29.6944 0.5 25 0.5V1ZM33 9H32.5V25H33H33.5V9H33ZM33 25H32.5C32.5 29.1421 29.1421 32.5 25 32.5V33V33.5C29.6944 33.5 33.5 29.6944 33.5 25H33ZM25 33V32.5H9V33V33.5H25V33ZM9 33V32.5C4.85786 32.5 1.5 29.1421 1.5 25H1H0.5C0.5 29.6944 4.30558 33.5 9 33.5V33ZM1 25H1.5V9H1H0.5V25H1ZM1 9H1.5C1.5 4.85786 4.85786 1.5 9 1.5V1V0.5C4.30558 0.5 0.5 4.30558 0.5 9H1ZM9 1V1.5H25V1V0.5H9V1ZM10.5 7V6.5C10.0385 6.5 9.55225 6.58874 9.23813 6.79425C9.08812 6.8924 8.84145 7.11285 8.86822 7.46824C8.89322 7.80008 9.14408 8.00188 9.32032 8.10849L9.5791 7.68066L9.83788 7.25284C9.7327 7.18922 9.85242 7.22082 9.8654 7.39312C9.88015 7.58897 9.74058 7.66053 9.78562 7.63107C9.8133 7.61295 9.89013 7.57705 10.0278 7.5469C10.1589 7.51817 10.321 7.5 10.5 7.5V7ZM9.5791 7.68066L9.32075 8.10875C9.38909 8.14999 9.46273 8.17592 9.50784 8.19081C9.56205 8.2087 9.62367 8.22591 9.68857 8.24247C9.81881 8.27572 9.98524 8.31218 10.178 8.35136C10.5646 8.42991 11.0827 8.52451 11.6818 8.63241C12.8843 8.84899 14.4276 9.12171 15.9616 9.43651C17.4991 9.75201 19.008 10.106 20.1437 10.482C20.7141 10.6708 21.1671 10.8577 21.4772 11.0369C21.6323 11.1265 21.7335 11.204 21.7935 11.2648C21.8552 11.3274 21.8451 11.3435 21.8397 11.3113L22.333 11.2295L22.8263 11.1477C22.7857 10.9034 22.6496 10.7089 22.5057 10.5629C22.3601 10.4151 22.176 10.2858 21.9775 10.171C21.5803 9.94152 21.0524 9.72939 20.458 9.53262C19.2642 9.1374 17.708 8.77403 16.1627 8.45692C14.614 8.13912 13.0568 7.86396 11.859 7.64824C11.258 7.53999 10.751 7.44734 10.3772 7.37138C10.1898 7.33331 10.0423 7.3007 9.93592 7.27355C9.88253 7.25992 9.84521 7.2491 9.82125 7.24119C9.78818 7.23027 9.80439 7.23263 9.83745 7.25258L9.5791 7.68066ZM22.333 11.2295L21.8397 11.3112C21.8734 11.5146 21.829 11.685 21.6999 11.8587C21.5587 12.0488 21.3096 12.2486 20.9272 12.4516C20.1595 12.8592 19.0158 13.1984 17.6439 13.5384C14.9583 14.204 11.4558 14.8533 8.91679 16.0832L9.13477 16.5332L9.35274 16.9832C11.7673 15.8136 15.0942 15.2006 17.8844 14.509C19.2505 14.1705 20.5063 13.8073 21.3961 13.3348C21.8425 13.0978 22.2366 12.8132 22.5026 12.4551C22.7808 12.0806 22.9077 11.6392 22.8263 11.1478L22.333 11.2295ZM9.13477 16.5332L8.91679 16.0832C6.77549 17.1205 5.20527 18.6391 5.54575 20.6997L6.03906 20.6182L6.53237 20.5367C6.31033 19.1929 7.27722 17.9886 9.35274 16.9832L9.13477 16.5332ZM6.03906 20.6182L5.54576 20.6997C5.67621 21.4888 5.99012 22.4695 6.85659 23.3742C7.71957 24.2752 9.08913 25.0575 11.252 25.5332L11.3594 25.0449L11.4668 24.5566C9.43973 24.1107 8.2687 23.4028 7.57878 22.6825C6.89235 21.9658 6.64105 21.194 6.53237 20.5366L6.03906 20.6182ZM11.3594 25.0449L11.252 25.5332C12.8369 25.8819 15.7823 26.2059 18.6225 26.4425C21.4683 26.6797 24.2584 26.833 25.5469 26.833L25.5469 26.333L25.5469 25.833C24.302 25.833 21.5461 25.6827 18.7055 25.446C15.8591 25.2088 12.9774 24.8889 11.4668 24.5566L11.3594 25.0449ZM25.5469 26.333V26.833C26.3265 26.833 26.9372 26.517 27.332 26.0067C27.7157 25.5106 27.8652 24.8717 27.8274 24.2539C27.7525 23.0266 26.9128 21.6928 25.3176 21.4847L25.2529 21.9805L25.1882 22.4763C26.2028 22.6086 26.7765 23.4511 26.8293 24.3149C26.8554 24.7427 26.7474 25.1281 26.541 25.3949C26.3456 25.6475 26.0337 25.833 25.5469 25.833V26.333ZM25.2529 21.9805L25.3176 21.4847C24.6433 21.3967 23.4194 21.3256 21.9954 21.2375C20.5586 21.1486 18.8936 21.0411 17.3034 20.8811C15.708 20.7206 14.212 20.5092 13.1061 20.218C12.5503 20.0716 12.1231 19.9125 11.8371 19.7466C11.5334 19.5704 11.4981 19.452 11.4953 19.4318L11 19.5L10.5047 19.5682C10.5723 20.0587 10.9536 20.3902 11.3353 20.6116C11.7347 20.8433 12.2616 21.0297 12.8514 21.185C14.0365 21.4971 15.5968 21.7144 17.2033 21.8761C18.8149 22.0383 20.4973 22.1467 21.9336 22.2356C23.3827 22.3253 24.5576 22.394 25.1882 22.4763L25.2529 21.9805ZM11 19.5L11.4953 19.4318C11.4837 19.3472 11.4976 19.2947 11.5258 19.2461C11.5605 19.1864 11.6359 19.1015 11.7973 18.997C12.1313 18.7807 12.6908 18.568 13.536 18.3093C15.1834 17.8052 17.7788 17.1668 21.1664 15.9715L21 15.5L20.8336 15.0285C17.4669 16.2164 14.959 16.8281 13.2433 17.3531C12.4069 17.6091 11.72 17.8557 11.2537 18.1576C11.0149 18.3123 10.8018 18.5013 10.6608 18.7443C10.5134 18.9985 10.4647 19.2778 10.5047 19.5682L11 19.5ZM21 15.5L21.1664 15.9715C22.9582 15.3393 24.3447 14.4394 25.0046 13.343C25.3421 12.7821 25.491 12.1648 25.3905 11.5244C25.2909 10.8894 24.954 10.2818 24.4097 9.71737L24.0498 10.0645L23.6899 10.4115C24.1306 10.8685 24.3425 11.2966 24.4026 11.6794C24.4618 12.0567 24.3814 12.439 24.1477 12.8273C23.6652 13.6293 22.5418 14.4258 20.8336 15.0285L21 15.5ZM24.0498 10.0645L24.4097 9.71735C23.7813 9.0658 22.6663 8.56753 21.4226 8.17419C20.1549 7.77324 18.6633 7.45483 17.1985 7.2083C14.2738 6.71606 11.3916 6.5 10.5 6.5L10.5 7L10.5 7.5C11.3202 7.5 14.1445 7.70835 17.0325 8.19443C18.4741 8.43706 19.9153 8.74629 21.1211 9.12764C22.3509 9.5166 23.2499 9.95529 23.6899 10.4116L24.0498 10.0645Z" fill="#FFFF3C"/>
</svg>
