<svg width="220" height="33" viewBox="0 0 220 33" fill="none" xmlns="http://www.w3.org/2000/svg">
<path fill-rule="evenodd" clip-rule="evenodd" d="M9 0.5C4.58172 0.5 1 4.08172 1 8.5V24.5C1 28.9183 4.58172 32.5 9 32.5H25C29.4183 32.5 33 28.9183 33 24.5V8.5C33 4.08172 29.4183 0.5 25 0.5H9ZM12.1562 7.70992C15.8317 8.37004 22.1296 9.50115 22.3333 10.7292C22.6115 12.4059 19.5535 13.1165 15.9957 13.9432C13.6559 14.4869 11.0999 15.0809 9.13458 16.0329C7.02607 17.0543 5.75744 18.4161 6.03887 20.1185C6.27801 21.5649 7.16964 23.6228 11.3597 24.5444C14.4554 25.2254 23.0144 25.8333 25.5472 25.8333C28.0801 25.8333 27.8627 21.8208 25.2529 21.4803C24.6541 21.4022 23.5944 21.3369 22.3135 21.2579C18.0123 20.9928 11.2168 20.574 11 19C10.8668 18.0331 12.2539 17.6409 15.0658 16.846C16.6161 16.4077 18.5995 15.847 21 15C24.5 13.765 26.0203 11.6069 24.0503 9.56415C21.9135 7.34846 12.2119 6.5 10.5 6.5C9.65571 6.5 9.01593 6.84046 9.57879 7.18092C9.73418 7.27492 10.7545 7.45817 12.1562 7.70992Z" fill="#FFFF3C"/>
<path d="M22.3333 10.7292L21.8401 10.811L22.3333 10.7292ZM12.1562 7.70992L12.2446 7.21779L12.1562 7.70992ZM15.9957 13.9432L15.8826 13.4562L15.9957 13.9432ZM9.13458 16.0329L9.35256 16.4829L9.13458 16.0329ZM6.03887 20.1185L5.54557 20.2L6.03887 20.1185ZM11.3597 24.5444L11.2523 25.0328L11.3597 24.5444ZM25.2529 21.4803L25.3176 20.9845H25.3176L25.2529 21.4803ZM22.3135 21.2579L22.3443 20.7589L22.3135 21.2579ZM11 19L11.4953 18.9318L11 19ZM15.0658 16.846L15.2018 17.3272L15.0658 16.846ZM21 15L21.1664 15.4715L21 15ZM24.0503 9.56415L24.4102 9.21707L24.0503 9.56415ZM9.57879 7.18092L9.32001 7.60875L9.32001 7.60875L9.57879 7.18092ZM1.5 8.5C1.5 4.35786 4.85786 1 9 1V0C4.30558 0 0.5 3.80558 0.5 8.5H1.5ZM1.5 24.5V8.5H0.5V24.5H1.5ZM9 32C4.85786 32 1.5 28.6421 1.5 24.5H0.5C0.5 29.1944 4.30558 33 9 33V32ZM25 32H9V33H25V32ZM32.5 24.5C32.5 28.6421 29.1421 32 25 32V33C29.6944 33 33.5 29.1944 33.5 24.5H32.5ZM32.5 8.5V24.5H33.5V8.5H32.5ZM25 1C29.1421 1 32.5 4.35786 32.5 8.5H33.5C33.5 3.80558 29.6944 0 25 0V1ZM9 1H25V0H9V1ZM22.8266 10.6473C22.769 10.3004 22.5193 10.0479 22.289 9.87449C22.0441 9.69005 21.7254 9.52402 21.3705 9.37238C20.6574 9.06771 19.706 8.78301 18.6688 8.52173C16.5896 7.99793 14.0784 7.54715 12.2446 7.21779L12.0678 8.20204C13.9095 8.53281 16.385 8.97765 18.4245 9.49143C19.4468 9.74895 20.3377 10.0185 20.9776 10.292C21.2992 10.4294 21.5348 10.5583 21.6876 10.6734C21.855 10.7995 21.8467 10.8509 21.8401 10.811L22.8266 10.6473ZM16.1089 14.4302C17.8717 14.0206 19.5736 13.6268 20.7957 13.1163C21.406 12.8614 21.9476 12.5575 22.3212 12.169C22.7134 11.7611 22.9264 11.2492 22.8266 10.6473L21.8401 10.811C21.8793 11.0475 21.8145 11.2532 21.6003 11.4759C21.3675 11.7181 20.9744 11.9579 20.4103 12.1936C19.2835 12.6642 17.6775 13.0391 15.8826 13.4562L16.1089 14.4302ZM9.35256 16.4829C11.2574 15.5602 13.7535 14.9776 16.1089 14.4302L15.8826 13.4562C13.5583 13.9963 10.9425 14.6016 8.9166 15.5829L9.35256 16.4829ZM6.53217 20.0369C6.31 18.693 7.27698 17.4883 9.35256 16.4829L8.9166 15.5829C6.77515 16.6203 5.20489 18.1393 5.54557 20.2L6.53217 20.0369ZM11.4671 24.0561C9.43993 23.6102 8.26874 22.9025 7.57872 22.1824C6.8922 21.4658 6.64085 20.6943 6.53217 20.0369L5.54557 20.2C5.67603 20.9891 5.99006 21.9697 6.85666 22.8742C7.71976 23.775 9.08943 24.557 11.2523 25.0328L11.4671 24.0561ZM25.5472 25.3333C24.3026 25.3333 21.5468 25.1829 18.7061 24.946C15.8597 24.7086 12.9778 24.3884 11.4671 24.0561L11.2523 25.0328C12.8373 25.3814 15.7828 25.7057 18.623 25.9425C21.4689 26.1798 24.259 26.3333 25.5472 26.3333V25.3333ZM25.1882 21.9761C26.2027 22.1084 26.7766 22.951 26.8295 23.815C26.8557 24.2429 26.7476 24.6284 26.5413 24.8952C26.3459 25.1478 26.034 25.3333 25.5472 25.3333V26.3333C26.3269 26.3333 26.9376 26.0173 27.3323 25.5069C27.716 25.0107 27.8654 24.3717 27.8276 23.754C27.7526 22.5266 26.9129 21.1926 25.3176 20.9845L25.1882 21.9761ZM22.2827 21.757C23.5737 21.8365 24.6109 21.9008 25.1882 21.9761L25.3176 20.9845C24.6972 20.9036 23.6151 20.8372 22.3443 20.7589L22.2827 21.757ZM10.5047 19.0682C10.5571 19.4486 10.8005 19.7327 11.0703 19.9368C11.3422 20.1425 11.695 20.3095 12.0849 20.45C12.8673 20.7319 13.9109 20.9458 15.052 21.1144C17.3408 21.4527 20.1376 21.6248 22.2827 21.757L22.3443 20.7589C20.1883 20.626 17.4367 20.4561 15.1982 20.1252C14.0758 19.9593 13.111 19.7568 12.4239 19.5092C12.0789 19.3849 11.8316 19.2588 11.6736 19.1393C11.5135 19.0182 11.4971 18.9449 11.4953 18.9318L10.5047 19.0682ZM14.9298 16.3649C13.5434 16.7568 12.4445 17.0657 11.717 17.4055C11.3517 17.576 11.0252 17.7781 10.8005 18.0461C10.5566 18.337 10.4517 18.6836 10.5047 19.0682L11.4953 18.9318C11.4817 18.833 11.5002 18.768 11.5668 18.6886C11.6526 18.5862 11.8237 18.4593 12.14 18.3116C12.7757 18.0148 13.7764 17.7301 15.2018 17.3272L14.9298 16.3649ZM20.8336 14.5285C18.4494 15.3698 16.4793 15.9268 14.9298 16.3649L15.2018 17.3272C16.753 16.8886 18.7496 16.3242 21.1664 15.4715L20.8336 14.5285ZM23.6904 9.91124C24.131 10.3682 24.343 10.7963 24.403 11.1791C24.4622 11.5564 24.3818 11.9388 24.148 12.3272C23.6653 13.1292 22.5417 13.9258 20.8336 14.5285L21.1664 15.4715C22.9582 14.8392 24.3448 13.9393 25.0048 12.8428C25.3423 12.282 25.4914 11.6646 25.3909 11.0242C25.2913 10.3892 24.9545 9.78151 24.4102 9.21707L23.6904 9.91124ZM10.5 7C11.3202 7 14.1447 7.20827 17.0328 7.69426C18.4745 7.93685 19.9158 8.24603 21.1216 8.62736C22.3514 9.01629 23.2504 9.45498 23.6904 9.91124L24.4102 9.21707C23.7818 8.56548 22.6668 8.06722 21.4231 7.6739C20.1554 7.27298 18.6636 6.95461 17.1988 6.70812C14.274 6.21596 11.3916 6 10.5 6V7ZM9.83757 6.7531C9.73245 6.68951 9.85223 6.72117 9.86515 6.89353C9.87982 7.08925 9.74036 7.1607 9.78548 7.13118C9.81323 7.11303 9.89011 7.07709 10.0278 7.04693C10.1589 7.01818 10.3211 7 10.5 7V6C10.0384 6 9.55212 6.08883 9.23795 6.29439C9.08794 6.39255 8.84131 6.61295 8.86794 6.96826C8.89282 7.30022 9.1437 7.5021 9.32001 7.60875L9.83757 6.7531ZM12.2446 7.21779C11.5419 7.09159 10.9416 6.98375 10.4972 6.89578C10.2746 6.85171 10.0976 6.81389 9.96951 6.78234C9.90515 6.76649 9.85902 6.75365 9.82843 6.74391C9.78674 6.73062 9.80268 6.732 9.83757 6.7531L9.32001 7.60875C9.39375 7.65335 9.47556 7.68101 9.52489 7.69672C9.58532 7.71597 9.65534 7.73484 9.73039 7.75333C9.88108 7.79044 10.0759 7.83178 10.303 7.87674C10.7581 7.96684 11.3688 8.07649 12.0678 8.20204L12.2446 7.21779Z" fill="#FFFF3C"/>
<path d="M53.56 10.876H64.728V14.076H53.56V10.876ZM44.888 28.444H73.208V31.708H44.888V28.444ZM46.04 3.484H55.96V6.588H46.04V3.484ZM54.84 3.484H55.544L56.184 3.324L58.776 4.604C58.1787 6.204 57.432 7.69733 56.536 9.084C55.64 10.4707 54.6267 11.7507 53.496 12.924C52.3653 14.076 51.1493 15.1107 49.848 16.028C48.568 16.9453 47.256 17.7347 45.912 18.396C45.7413 18.1187 45.5173 17.8093 45.24 17.468C44.9627 17.1053 44.6747 16.7533 44.376 16.412C44.0773 16.0707 43.8 15.7827 43.544 15.548C44.76 15.036 45.944 14.3853 47.096 13.596C48.248 12.7853 49.3253 11.8787 50.328 10.876C51.352 9.87333 52.248 8.80667 53.016 7.676C53.8053 6.54533 54.4133 5.372 54.84 4.156V3.484ZM62.168 2.428C62.9147 4.24133 63.8853 5.95867 65.08 7.58C66.296 9.20133 67.7147 10.6413 69.336 11.9C70.9573 13.1587 72.7173 14.1613 74.616 14.908C74.3173 15.164 73.9973 15.484 73.656 15.868C73.336 16.252 73.0267 16.6573 72.728 17.084C72.4293 17.4893 72.184 17.852 71.992 18.172C69.944 17.2333 68.088 16.0387 66.424 14.588C64.7813 13.116 63.32 11.4413 62.04 9.564C60.76 7.68667 59.6613 5.64933 58.744 3.452L62.168 2.428ZM45.592 9.404L47.672 7.292C48.1413 7.548 48.632 7.85733 49.144 8.22C49.656 8.56133 50.136 8.91333 50.584 9.276C51.0533 9.61733 51.4267 9.95867 51.704 10.3L49.528 12.636C49.272 12.2947 48.92 11.9427 48.472 11.58C48.0453 11.196 47.576 10.812 47.064 10.428C46.5733 10.044 46.0827 9.70267 45.592 9.404ZM67.064 2.62L69.976 4.668C69.08 5.41467 68.1413 6.15067 67.16 6.876C66.2 7.60133 65.3147 8.22 64.504 8.732L62.232 6.94C62.744 6.57733 63.2987 6.15066 63.896 5.66C64.4933 5.148 65.0693 4.62533 65.624 4.092C66.2 3.55866 66.68 3.068 67.064 2.62ZM70.68 6.332L73.496 8.316C72.6 9.10533 71.6293 9.89467 70.584 10.684C69.56 11.4733 68.6213 12.124 67.768 12.636L65.464 10.844C66.04 10.46 66.6373 10.012 67.256 9.5C67.896 8.988 68.5147 8.45467 69.112 7.9C69.7307 7.34533 70.2533 6.82267 70.68 6.332ZM53.176 18.94V21.724H64.376V18.94H53.176ZM49.304 15.9H68.504V24.764H49.304V15.9ZM51.448 25.564L54.904 24.476C55.2667 25.0093 55.5973 25.596 55.896 26.236C56.216 26.876 56.44 27.4413 56.568 27.932L52.952 29.18C52.8453 28.6893 52.6533 28.1027 52.376 27.42C52.0987 26.7373 51.7893 26.1187 51.448 25.564ZM62.904 24.636L66.616 25.436C66.2107 26.2467 65.816 27.0253 65.432 27.772C65.048 28.4973 64.696 29.116 64.376 29.628L60.984 28.892C61.2187 28.4867 61.4533 28.0387 61.688 27.548C61.9227 27.0573 62.1467 26.556 62.36 26.044C62.5733 25.532 62.7547 25.0627 62.904 24.636ZM88.952 2.556H92.984V27.836H88.952V2.556ZM100.152 9.116H104.152V32.316H100.152V9.116ZM77.976 9.244H81.944V26.076H102.04V30.044H77.976V9.244ZM122.744 9.084H133.432V12.444H122.744V9.084ZM125.24 2.364H128.76V13.788C128.76 15.452 128.696 17.1267 128.568 18.812C128.461 20.476 128.216 22.1293 127.832 23.772C127.469 25.3933 126.904 26.9507 126.136 28.444C125.368 29.9373 124.344 31.324 123.064 32.604C122.829 32.348 122.531 32.0707 122.168 31.772C121.827 31.4733 121.464 31.1747 121.08 30.876C120.717 30.5987 120.376 30.3853 120.056 30.236C121.229 29.084 122.168 27.8573 122.872 26.556C123.576 25.2547 124.099 23.9 124.44 22.492C124.781 21.084 124.995 19.6547 125.08 18.204C125.187 16.732 125.24 15.26 125.24 13.788V2.364ZM108.44 5.372H122.424V8.668H108.44V5.372ZM107.992 23.9H122.648V27.26H107.992V23.9ZM113.688 2.332H117.304V11.708H113.688V2.332ZM114.072 11.708H116.888V20.604H117.24V32.348H113.688V20.604H114.072V11.708ZM112.088 17.5V19.388H119V17.5H112.088ZM112.088 13.116V15.004H119V13.116H112.088ZM109.144 10.428H122.04V22.076H109.144V10.428ZM130.808 9.084H134.328V27.644C134.328 27.8787 134.36 28.06 134.424 28.188C134.488 28.252 134.552 28.3053 134.616 28.348C134.68 28.3907 134.755 28.412 134.84 28.412C134.904 28.412 134.968 28.412 135.032 28.412C135.117 28.412 135.203 28.412 135.288 28.412C135.352 28.412 135.427 28.4013 135.512 28.38C135.597 28.3373 135.661 28.284 135.704 28.22C135.747 28.1133 135.789 27.9853 135.832 27.836C135.875 27.6653 135.907 27.4733 135.928 27.26C135.949 26.94 135.971 26.428 135.992 25.724C136.013 25.02 136.013 24.22 135.992 23.324C136.312 23.6227 136.717 23.9107 137.208 24.188C137.699 24.444 138.157 24.6467 138.584 24.796C138.563 25.372 138.541 25.98 138.52 26.62C138.499 27.26 138.456 27.8467 138.392 28.38C138.349 28.9133 138.307 29.3187 138.264 29.596C138.051 30.492 137.709 31.1427 137.24 31.548C136.984 31.7187 136.696 31.8573 136.376 31.964C136.056 32.092 135.725 32.156 135.384 32.156C135.128 32.156 134.84 32.156 134.52 32.156C134.2 32.156 133.933 32.156 133.72 32.156C133.315 32.156 132.909 32.0813 132.504 31.932C132.099 31.804 131.757 31.58 131.48 31.26C131.224 30.9613 131.043 30.588 130.936 30.14C130.851 29.692 130.808 28.9347 130.808 27.868V9.084ZM144.632 6.684V11.036H148.248V6.684H144.632ZM141.432 3.516H151.608V14.204H141.432V3.516ZM145.496 12.764H148.728V27.452H145.496V12.764ZM141.208 16.444H144.184V28.316H141.208V16.444ZM139.704 27.1C140.749 26.8867 141.923 26.6413 143.224 26.364C144.547 26.0867 145.933 25.788 147.384 25.468C148.856 25.1267 150.317 24.7853 151.768 24.444L152.152 27.644C150.125 28.1773 148.077 28.7 146.008 29.212C143.939 29.7027 142.072 30.1613 140.408 30.588L139.704 27.1ZM146.84 17.692H151.672V20.956H146.84V17.692ZM152.344 7.324H169.88V10.972H152.344V7.324ZM161.624 9.788H165.176V28.252C165.176 29.148 165.08 29.8627 164.888 30.396C164.717 30.9507 164.365 31.3773 163.832 31.676C163.299 31.9747 162.637 32.1667 161.848 32.252C161.059 32.3373 160.131 32.38 159.064 32.38C159.021 31.8893 158.893 31.2813 158.68 30.556C158.488 29.852 158.264 29.2333 158.008 28.7C158.669 28.7213 159.288 28.7427 159.864 28.764C160.461 28.764 160.867 28.764 161.08 28.764C161.293 28.7427 161.432 28.7 161.496 28.636C161.581 28.5507 161.624 28.412 161.624 28.22V9.788ZM153.464 13.98L156.664 14.556C156.365 16.4333 155.928 18.2573 155.352 20.028C154.797 21.7773 154.136 23.2493 153.368 24.444C153.176 24.2733 152.909 24.0813 152.568 23.868C152.248 23.6333 151.907 23.4093 151.544 23.196C151.181 22.9827 150.872 22.812 150.616 22.684C151.341 21.6173 151.939 20.316 152.408 18.78C152.877 17.2227 153.229 15.6227 153.464 13.98ZM164.504 14.812L167.512 13.628C167.981 14.6093 168.419 15.6653 168.824 16.796C169.229 17.9053 169.581 19.004 169.88 20.092C170.179 21.1587 170.392 22.1293 170.52 23.004L167.288 24.316C167.203 23.4413 167.021 22.46 166.744 21.372C166.467 20.2627 166.136 19.1427 165.752 18.012C165.368 16.86 164.952 15.7933 164.504 14.812ZM156.92 8.7H160.152V16.092C160.152 17.4787 160.067 18.8973 159.896 20.348C159.747 21.7773 159.437 23.2067 158.968 24.636C158.499 26.044 157.795 27.4093 156.856 28.732C155.939 30.0333 154.723 31.2493 153.208 32.38C152.888 31.9747 152.472 31.5373 151.96 31.068C151.469 30.62 151 30.2253 150.552 29.884C151.96 28.8813 153.08 27.804 153.912 26.652C154.765 25.5 155.405 24.3267 155.832 23.132C156.259 21.916 156.547 20.7107 156.696 19.516C156.845 18.3213 156.92 17.1693 156.92 16.06V8.7ZM158.168 3.164L161.656 2.172C162.061 2.89733 162.467 3.708 162.872 4.604C163.277 5.47867 163.555 6.24667 163.704 6.908L159.992 8.028C159.864 7.388 159.619 6.60933 159.256 5.692C158.915 4.77467 158.552 3.932 158.168 3.164Z" fill="#FFFF3C"/>
<path d="M176.274 14.5V4.126H178.346V8.228H182.266V4.126H184.324V14.5H182.266V10.02H178.346V14.5H176.274ZM186.702 14.5V6.66H188.76V14.5H186.702ZM187.738 5.386C187.374 5.386 187.084 5.288 186.87 5.092C186.655 4.88667 186.548 4.61133 186.548 4.266C186.548 3.93 186.655 3.65933 186.87 3.454C187.084 3.24867 187.374 3.146 187.738 3.146C188.083 3.146 188.368 3.24867 188.592 3.454C188.816 3.65933 188.928 3.93 188.928 4.266C188.928 4.61133 188.816 4.88667 188.592 5.092C188.368 5.288 188.083 5.386 187.738 5.386ZM190.954 14.5V3.328H192.984V10.02H193.04L195.714 6.66H197.968L195.28 9.894L198.22 14.5H195.98L194.076 11.238L192.984 12.512V14.5H190.954ZM199.403 14.5V6.66H201.461V14.5H199.403ZM200.439 5.386C200.075 5.386 199.786 5.288 199.571 5.092C199.356 4.88667 199.249 4.61133 199.249 4.266C199.249 3.93 199.356 3.65933 199.571 3.454C199.786 3.24867 200.075 3.146 200.439 3.146C200.784 3.146 201.069 3.24867 201.293 3.454C201.517 3.65933 201.629 3.93 201.629 4.266C201.629 4.61133 201.517 4.88667 201.293 5.092C201.069 5.288 200.784 5.386 200.439 5.386ZM203.655 14.5V6.66H205.335L205.489 7.696H205.531C205.876 7.36 206.254 7.07067 206.665 6.828C207.075 6.58533 207.547 6.464 208.079 6.464C208.928 6.464 209.544 6.744 209.927 7.304C210.309 7.85467 210.501 8.62467 210.501 9.614V14.5H208.443V9.866C208.443 9.25933 208.354 8.83467 208.177 8.592C208.009 8.34933 207.729 8.228 207.337 8.228C207.019 8.228 206.739 8.30267 206.497 8.452C206.263 8.60133 206.002 8.82067 205.713 9.11V14.5H203.655ZM215.382 17.902C214.766 17.902 214.21 17.8273 213.716 17.678C213.221 17.538 212.829 17.3187 212.54 17.02C212.26 16.7307 212.12 16.3527 212.12 15.886C212.12 15.5593 212.213 15.256 212.4 14.976C212.586 14.696 212.866 14.458 213.24 14.262V14.192C213.034 14.0613 212.862 13.8887 212.722 13.674C212.591 13.4593 212.526 13.1887 212.526 12.862C212.526 12.5727 212.61 12.302 212.778 12.05C212.955 11.7887 213.16 11.574 213.394 11.406V11.35C213.123 11.154 212.88 10.8787 212.666 10.524C212.451 10.1693 212.344 9.75867 212.344 9.292C212.344 8.676 212.488 8.158 212.778 7.738C213.076 7.318 213.468 7.00067 213.954 6.786C214.439 6.57133 214.952 6.464 215.494 6.464C215.727 6.464 215.942 6.48267 216.138 6.52C216.343 6.55733 216.53 6.604 216.698 6.66H219.512V8.172H218.182C218.284 8.312 218.368 8.48467 218.434 8.69C218.499 8.89533 218.532 9.11933 218.532 9.362C218.532 9.95 218.396 10.4447 218.126 10.846C217.855 11.238 217.491 11.532 217.034 11.728C216.576 11.924 216.063 12.022 215.494 12.022C215.354 12.022 215.195 12.008 215.018 11.98C214.84 11.9427 214.663 11.896 214.486 11.84C214.383 11.9333 214.299 12.0313 214.234 12.134C214.178 12.2273 214.15 12.358 214.15 12.526C214.15 12.722 214.238 12.876 214.416 12.988C214.602 13.1 214.924 13.156 215.382 13.156H216.726C217.668 13.156 218.392 13.3147 218.896 13.632C219.4 13.94 219.652 14.4347 219.652 15.116C219.652 15.648 219.474 16.1193 219.12 16.53C218.774 16.95 218.28 17.2813 217.636 17.524C217.001 17.776 216.25 17.902 215.382 17.902ZM215.494 10.748C215.727 10.748 215.937 10.692 216.124 10.58C216.31 10.468 216.46 10.3047 216.572 10.09C216.684 9.866 216.74 9.6 216.74 9.292C216.74 8.984 216.684 8.72733 216.572 8.522C216.46 8.30733 216.31 8.14867 216.124 8.046C215.937 7.934 215.727 7.878 215.494 7.878C215.27 7.878 215.064 7.934 214.878 8.046C214.691 8.14867 214.542 8.30733 214.43 8.522C214.327 8.72733 214.276 8.984 214.276 9.292C214.276 9.6 214.327 9.866 214.43 10.09C214.542 10.3047 214.691 10.468 214.878 10.58C215.064 10.692 215.27 10.748 215.494 10.748ZM215.69 16.586C216.091 16.586 216.436 16.5347 216.726 16.432C217.024 16.3293 217.258 16.194 217.426 16.026C217.594 15.858 217.678 15.6713 217.678 15.466C217.678 15.186 217.566 14.9947 217.342 14.892C217.118 14.7987 216.796 14.752 216.376 14.752H215.41C215.176 14.752 214.976 14.7427 214.808 14.724C214.64 14.7147 214.481 14.6913 214.332 14.654C214.154 14.794 214.024 14.9387 213.94 15.088C213.865 15.2467 213.828 15.41 213.828 15.578C213.828 15.8953 213.996 16.1427 214.332 16.32C214.668 16.4973 215.12 16.586 215.69 16.586ZM178.332 30.5V21.862H175.42V20.126H183.33V21.862H180.404V30.5H178.332ZM184.104 30.5V22.66H185.784L185.938 24.046H185.98C186.269 23.5327 186.61 23.1407 187.002 22.87C187.394 22.5993 187.795 22.464 188.206 22.464C188.43 22.464 188.607 22.4827 188.738 22.52C188.878 22.548 189.004 22.5853 189.116 22.632L188.78 24.41C188.631 24.3727 188.495 24.3447 188.374 24.326C188.262 24.298 188.117 24.284 187.94 24.284C187.641 24.284 187.324 24.4007 186.988 24.634C186.661 24.8673 186.386 25.264 186.162 25.824V30.5H184.104ZM191.628 30.696C191.17 30.696 190.764 30.598 190.41 30.402C190.064 30.1967 189.794 29.9167 189.598 29.562C189.411 29.2073 189.318 28.806 189.318 28.358C189.318 27.5273 189.677 26.8833 190.396 26.426C191.114 25.9593 192.258 25.642 193.826 25.474C193.816 25.2127 193.77 24.984 193.686 24.788C193.602 24.5827 193.462 24.4193 193.266 24.298C193.079 24.1767 192.822 24.116 192.496 24.116C192.132 24.116 191.772 24.186 191.418 24.326C191.063 24.466 190.704 24.648 190.34 24.872L189.612 23.5C189.92 23.304 190.246 23.1313 190.592 22.982C190.937 22.8327 191.301 22.7113 191.684 22.618C192.066 22.5153 192.463 22.464 192.874 22.464C193.536 22.464 194.092 22.5947 194.54 22.856C194.988 23.1173 195.324 23.5047 195.548 24.018C195.772 24.5313 195.884 25.166 195.884 25.922V30.5H194.204L194.064 29.66H193.994C193.658 29.9587 193.294 30.206 192.902 30.402C192.51 30.598 192.085 30.696 191.628 30.696ZM192.314 29.086C192.603 29.086 192.864 29.0207 193.098 28.89C193.34 28.75 193.583 28.5587 193.826 28.316V26.748C193.191 26.8227 192.687 26.93 192.314 27.07C191.94 27.21 191.674 27.378 191.516 27.574C191.357 27.7607 191.278 27.9707 191.278 28.204C191.278 28.512 191.371 28.736 191.558 28.876C191.754 29.016 192.006 29.086 192.314 29.086ZM201.313 30.696C200.594 30.696 199.946 30.5327 199.367 30.206C198.788 29.8793 198.331 29.4127 197.995 28.806C197.659 28.19 197.491 27.448 197.491 26.58C197.491 25.712 197.673 24.9747 198.037 24.368C198.41 23.752 198.9 23.2807 199.507 22.954C200.123 22.6273 200.786 22.464 201.495 22.464C201.98 22.464 202.41 22.548 202.783 22.716C203.156 22.8747 203.488 23.0847 203.777 23.346L202.797 24.648C202.61 24.48 202.419 24.354 202.223 24.27C202.027 24.186 201.822 24.144 201.607 24.144C201.206 24.144 200.851 24.2467 200.543 24.452C200.244 24.648 200.011 24.928 199.843 25.292C199.684 25.656 199.605 26.0853 199.605 26.58C199.605 27.0747 199.684 27.504 199.843 27.868C200.011 28.232 200.24 28.5167 200.529 28.722C200.828 28.918 201.164 29.016 201.537 29.016C201.817 29.016 202.088 28.9553 202.349 28.834C202.61 28.7127 202.848 28.5633 203.063 28.386L203.875 29.744C203.502 30.0707 203.086 30.3133 202.629 30.472C202.181 30.6213 201.742 30.696 201.313 30.696ZM205.364 30.5V19.328H207.394V26.02H207.45L210.124 22.66H212.378L209.69 25.894L212.63 30.5H210.39L208.486 27.238L207.394 28.512V30.5H205.364Z" fill="#FFFF3C"/>
</svg>
