<svg width="19" height="19" viewBox="0 0 19 19" fill="none" xmlns="http://www.w3.org/2000/svg">
<path fill-rule="evenodd" clip-rule="evenodd" d="M12.088 3.94477C14.2467 6.10352 14.2467 9.60354 12.088 11.7623C9.92921 13.921 6.42918 13.921 4.27043 11.7623C2.11168 9.60354 2.11168 6.10352 4.27043 3.94477C6.42918 1.78601 9.92921 1.78602 12.088 3.94477ZM13.5022 2.53055C16.442 5.47035 16.442 10.2367 13.5022 13.1765C10.5624 16.1163 5.79602 16.1163 2.85622 13.1765C-0.0835825 10.2367 -0.0835825 5.47035 2.85622 2.53055C5.79602 -0.409247 10.5624 -0.409247 13.5022 2.53055ZM12.7952 13.8836L17.5858 18.6743L19 17.2601L14.2094 12.4694L12.7952 13.8836Z" fill="#F0F0F0"/>
</svg>
