<svg width="223" height="33" viewBox="0 0 223 33" fill="none" xmlns="http://www.w3.org/2000/svg">
<path fill-rule="evenodd" clip-rule="evenodd" d="M9 0.5C4.58172 0.5 1 4.08172 1 8.5V24.5C1 28.9183 4.58172 32.5 9 32.5H25C29.4183 32.5 33 28.9183 33 24.5V8.5C33 4.08172 29.4183 0.5 25 0.5H9ZM12.1562 7.70992C15.8317 8.37004 22.1296 9.50115 22.3333 10.7292C22.6115 12.4059 19.5535 13.1165 15.9957 13.9432C13.6559 14.4869 11.0999 15.0809 9.13458 16.0329C7.02607 17.0543 5.75744 18.4161 6.03887 20.1185C6.27801 21.5649 7.16964 23.6228 11.3597 24.5444C14.4554 25.2254 23.0144 25.8333 25.5472 25.8333C28.0801 25.8333 27.8627 21.8208 25.2529 21.4803C24.6541 21.4022 23.5944 21.3369 22.3135 21.2579C18.0123 20.9928 11.2168 20.574 11 19C10.8668 18.0331 12.2539 17.6409 15.0658 16.846C16.6161 16.4077 18.5995 15.847 21 15C24.5 13.765 26.0203 11.6069 24.0503 9.56415C21.9135 7.34846 12.2119 6.5 10.5 6.5C9.65571 6.5 9.01593 6.84046 9.57879 7.18092C9.73418 7.27492 10.7545 7.45817 12.1562 7.70992Z" fill="#FFFF3C"/>
<path d="M22.3333 10.7292L21.8401 10.811L21.8401 10.811L22.3333 10.7292ZM12.1562 7.70992L12.2446 7.21779L12.2446 7.21779L12.1562 7.70992ZM15.9957 13.9432L15.8826 13.4562L15.8826 13.4562L15.9957 13.9432ZM9.13458 16.0329L9.35256 16.4829L9.35256 16.4829L9.13458 16.0329ZM6.03887 20.1185L5.54557 20.2L5.54557 20.2L6.03887 20.1185ZM11.3597 24.5444L11.2523 25.0328L11.2523 25.0328L11.3597 24.5444ZM25.2529 21.4803L25.3176 20.9845L25.3176 20.9845L25.2529 21.4803ZM22.3135 21.2579L22.3443 20.7589L22.3443 20.7589L22.3135 21.2579ZM11 19L11.4953 18.9318L11.4953 18.9318L11 19ZM15.0658 16.846L15.2018 17.3272L15.2018 17.3272L15.0658 16.846ZM21 15L21.1664 15.4715L21.1664 15.4715L21 15ZM24.0503 9.56415L24.4102 9.21707L24.4102 9.21707L24.0503 9.56415ZM9.57879 7.18092L9.32001 7.60875L9.32001 7.60875L9.57879 7.18092ZM1.5 8.5C1.5 4.35786 4.85786 1 9 1V0C4.30558 0 0.5 3.80558 0.5 8.5H1.5ZM1.5 24.5V8.5H0.5V24.5H1.5ZM9 32C4.85786 32 1.5 28.6421 1.5 24.5H0.5C0.5 29.1944 4.30558 33 9 33V32ZM25 32H9V33H25V32ZM32.5 24.5C32.5 28.6421 29.1421 32 25 32V33C29.6944 33 33.5 29.1944 33.5 24.5H32.5ZM32.5 8.5V24.5H33.5V8.5H32.5ZM25 1C29.1421 1 32.5 4.35786 32.5 8.5H33.5C33.5 3.80558 29.6944 0 25 0V1ZM9 1H25V0H9V1ZM22.8266 10.6473C22.769 10.3004 22.5193 10.0479 22.289 9.87449C22.0441 9.69005 21.7254 9.52402 21.3705 9.37238C20.6574 9.06771 19.706 8.78301 18.6688 8.52173C16.5896 7.99793 14.0784 7.54715 12.2446 7.21779L12.0678 8.20204C13.9095 8.53281 16.385 8.97765 18.4245 9.49143C19.4468 9.74895 20.3377 10.0185 20.9776 10.292C21.2992 10.4294 21.5348 10.5583 21.6876 10.6734C21.855 10.7995 21.8467 10.8509 21.8401 10.811L22.8266 10.6473ZM16.1089 14.4302C17.8717 14.0206 19.5736 13.6268 20.7957 13.1163C21.406 12.8614 21.9476 12.5575 22.3212 12.169C22.7134 11.7611 22.9264 11.2492 22.8266 10.6473L21.8401 10.811C21.8793 11.0475 21.8145 11.2532 21.6003 11.4759C21.3675 11.7181 20.9744 11.9579 20.4103 12.1936C19.2835 12.6642 17.6775 13.0391 15.8826 13.4562L16.1089 14.4302ZM9.35256 16.4829C11.2574 15.5602 13.7535 14.9776 16.1089 14.4302L15.8826 13.4562C13.5583 13.9963 10.9425 14.6016 8.9166 15.5829L9.35256 16.4829ZM6.53217 20.0369C6.31 18.693 7.27698 17.4883 9.35256 16.4829L8.9166 15.5829C6.77515 16.6203 5.20489 18.1393 5.54557 20.2L6.53217 20.0369ZM11.4671 24.0561C9.43993 23.6102 8.26875 22.9025 7.57872 22.1824C6.8922 21.4658 6.64085 20.6943 6.53217 20.0369L5.54557 20.2C5.67603 20.9891 5.99006 21.9697 6.85666 22.8742C7.71976 23.775 9.08943 24.557 11.2523 25.0328L11.4671 24.0561ZM25.5472 25.3333C24.3026 25.3333 21.5468 25.1829 18.7061 24.946C15.8597 24.7086 12.9778 24.3884 11.4671 24.0561L11.2523 25.0328C12.8373 25.3814 15.7828 25.7057 18.623 25.9425C21.4689 26.1798 24.259 26.3333 25.5472 26.3333V25.3333ZM25.1882 21.9761C26.2027 22.1084 26.7766 22.951 26.8295 23.815C26.8557 24.2429 26.7476 24.6284 26.5413 24.8952C26.3459 25.1478 26.034 25.3333 25.5472 25.3333V26.3333C26.3269 26.3333 26.9376 26.0173 27.3323 25.5069C27.716 25.0107 27.8654 24.3717 27.8276 23.754C27.7526 22.5266 26.9129 21.1926 25.3176 20.9845L25.1882 21.9761ZM22.2827 21.757C23.5737 21.8365 24.6109 21.9008 25.1882 21.9761L25.3176 20.9845C24.6972 20.9036 23.6151 20.8372 22.3443 20.7589L22.2827 21.757ZM10.5047 19.0682C10.5571 19.4486 10.8005 19.7327 11.0703 19.9368C11.3422 20.1425 11.695 20.3095 12.0849 20.45C12.8673 20.7319 13.9109 20.9458 15.052 21.1144C17.3408 21.4527 20.1376 21.6248 22.2827 21.757L22.3443 20.7589C20.1883 20.626 17.4367 20.4561 15.1982 20.1252C14.0758 19.9593 13.111 19.7568 12.4239 19.5092C12.0789 19.3849 11.8316 19.2588 11.6736 19.1393C11.5135 19.0182 11.4971 18.9449 11.4953 18.9318L10.5047 19.0682ZM14.9298 16.3649C13.5433 16.7568 12.4445 17.0657 11.717 17.4055C11.3517 17.576 11.0252 17.7781 10.8005 18.0461C10.5566 18.337 10.4517 18.6836 10.5047 19.0682L11.4953 18.9318C11.4817 18.833 11.5002 18.768 11.5668 18.6886C11.6526 18.5862 11.8237 18.4593 12.14 18.3116C12.7757 18.0148 13.7764 17.7301 15.2018 17.3272L14.9298 16.3649ZM20.8336 14.5285C18.4494 15.3698 16.4793 15.9268 14.9298 16.3649L15.2018 17.3272C16.753 16.8886 18.7496 16.3242 21.1664 15.4715L20.8336 14.5285ZM23.6904 9.91124C24.131 10.3682 24.343 10.7963 24.403 11.1791C24.4622 11.5564 24.3818 11.9388 24.148 12.3272C23.6653 13.1292 22.5417 13.9258 20.8336 14.5285L21.1664 15.4715C22.9582 14.8392 24.3448 13.9393 25.0048 12.8428C25.3423 12.282 25.4914 11.6646 25.3909 11.0242C25.2913 10.3892 24.9545 9.78151 24.4102 9.21707L23.6904 9.91124ZM10.5 7C11.3202 7 14.1447 7.20827 17.0328 7.69426C18.4745 7.93685 19.9158 8.24603 21.1216 8.62736C22.3514 9.01629 23.2504 9.45498 23.6904 9.91124L24.4102 9.21707C23.7818 8.56548 22.6668 8.06722 21.4231 7.6739C20.1554 7.27298 18.6636 6.95461 17.1988 6.70812C14.274 6.21596 11.3916 6 10.5 6V7ZM9.83757 6.7531C9.73245 6.68951 9.85223 6.72117 9.86515 6.89353C9.87982 7.08925 9.74036 7.1607 9.78548 7.13118C9.81323 7.11303 9.89011 7.07709 10.0278 7.04693C10.1589 7.01818 10.3211 7 10.5 7V6C10.0384 6 9.55213 6.08883 9.23795 6.29439C9.08794 6.39255 8.84131 6.61295 8.86794 6.96826C8.89282 7.30022 9.1437 7.5021 9.32001 7.60875L9.83757 6.7531ZM12.2446 7.21779C11.5419 7.09159 10.9416 6.98375 10.4972 6.89578C10.2746 6.85171 10.0976 6.81389 9.96951 6.78234C9.90515 6.76649 9.85902 6.75365 9.82843 6.74391C9.78674 6.73062 9.80268 6.732 9.83757 6.7531L9.32001 7.60875C9.39375 7.65335 9.47556 7.68101 9.52489 7.69672C9.58532 7.71597 9.65534 7.73484 9.73039 7.75333C9.88108 7.79044 10.0759 7.83178 10.303 7.87674C10.7581 7.96684 11.3688 8.07649 12.0678 8.20204L12.2446 7.21779Z" fill="#FFFF3C"/>
<path d="M43.96 21.468H74.04V25.02H43.96V21.468ZM45.272 4.028H72.76V7.58H45.272V4.028ZM50.296 15.612H67.96V18.876H50.296V15.612ZM66.552 9.692H70.392V28.22C70.392 29.18 70.264 29.9373 70.008 30.492C69.752 31.0467 69.2933 31.4733 68.632 31.772C67.9707 32.0707 67.1493 32.252 66.168 32.316C65.208 32.38 64.056 32.412 62.712 32.412C62.6053 31.9 62.4133 31.2813 62.136 30.556C61.88 29.852 61.624 29.2653 61.368 28.796C61.9653 28.8173 62.5627 28.8387 63.16 28.86C63.7573 28.86 64.2907 28.86 64.76 28.86C65.2507 28.86 65.5813 28.86 65.752 28.86C66.0507 28.86 66.2533 28.8067 66.36 28.7C66.488 28.5933 66.552 28.412 66.552 28.156V9.692ZM47.64 9.692H68.088V13.148H51.416V32.412H47.64V9.692ZM56.952 5.116H60.792V22.716H56.952V5.116ZM76.216 14.94H105.848V19.132H76.216V14.94ZM117.848 3.964H137.08V32.06H133.432V7.292H121.368V32.348H117.848V3.964ZM122.2 11.196H132.728V13.98H122.2V11.196ZM119.672 27.132H135.192V30.46H119.672V27.132ZM125.848 7.932H128.824V18.236H125.848V7.932ZM125.784 19.42V22.78H129.016V19.42H125.784ZM123 16.764H131.928V25.404H123V16.764ZM113.912 2.396L117.4 3.484C116.803 5.31867 116.067 7.17466 115.192 9.052C114.339 10.908 113.4 12.668 112.376 14.332C111.352 15.9747 110.275 17.436 109.144 18.716C109.059 18.396 108.909 17.9693 108.696 17.436C108.483 16.9027 108.248 16.3693 107.992 15.836C107.736 15.3027 107.512 14.8653 107.32 14.524C108.216 13.5427 109.069 12.4013 109.88 11.1C110.712 9.79867 111.469 8.412 112.152 6.94C112.835 5.44667 113.421 3.932 113.912 2.396ZM111.288 11.196L114.904 7.58L114.936 7.612V32.412H111.288V11.196ZM145.048 26.076H164.888V28.38H145.048V26.076ZM164.184 26.076H167.96C167.96 26.076 167.939 26.172 167.896 26.364C167.875 26.5347 167.843 26.748 167.8 27.004C167.779 27.2387 167.747 27.4307 167.704 27.58C167.427 28.668 167.117 29.532 166.776 30.172C166.456 30.812 166.061 31.292 165.592 31.612C165.101 31.868 164.557 32.0387 163.96 32.124C163.384 32.2093 162.68 32.252 161.848 32.252C161.357 32.252 160.717 32.252 159.928 32.252C159.16 32.252 158.328 32.2307 157.432 32.188C156.536 32.1667 155.629 32.1347 154.712 32.092C154.691 31.7293 154.595 31.324 154.424 30.876C154.275 30.428 154.072 30.0227 153.816 29.66C154.733 29.724 155.661 29.7773 156.6 29.82C157.56 29.8627 158.424 29.884 159.192 29.884C159.96 29.9053 160.536 29.916 160.92 29.916C161.368 29.916 161.72 29.9053 161.976 29.884C162.253 29.8627 162.488 29.8093 162.68 29.724C163 29.5533 163.277 29.2013 163.512 28.668C163.768 28.1347 163.981 27.4093 164.152 26.492L164.184 26.076ZM146.584 22.524H162.488V21.436H143.352V19.164H166.072V24.828H146.584V22.524ZM144.92 22.524H148.504C148.205 23.5693 147.885 24.6147 147.544 25.66C147.203 26.7053 146.893 27.612 146.616 28.38H142.968C143.309 27.5693 143.651 26.6413 143.992 25.596C144.355 24.5293 144.664 23.5053 144.92 22.524ZM151.288 7.836H158.872V9.468H151.288V7.836ZM151.288 10.46H158.872V12.156H151.288V10.46ZM150.264 4.796H159.832V6.844H150.264V4.796ZM153.464 14.908V16.348H156.664V14.908H153.464ZM151.224 13.148H159.032V18.108H151.224V13.148ZM147.384 9.948L149.336 9.34C149.699 9.916 150.061 10.5667 150.424 11.292C150.787 12.0173 151.053 12.6253 151.224 13.116L149.176 13.852C149.005 13.34 148.749 12.7107 148.408 11.964C148.088 11.2173 147.747 10.5453 147.384 9.948ZM141.688 9.468C141.624 9.19066 141.496 8.80666 141.304 8.316C141.133 7.804 140.973 7.388 140.824 7.068C141.251 7.004 141.677 6.75867 142.104 6.332C142.253 6.204 142.477 5.95867 142.776 5.596C143.096 5.23333 143.437 4.80666 143.8 4.316C144.163 3.804 144.483 3.28133 144.76 2.748L147.352 3.484C146.797 4.40133 146.168 5.276 145.464 6.108C144.76 6.91867 144.099 7.58 143.48 8.092V8.124C143.48 8.124 143.395 8.16667 143.224 8.252C143.053 8.316 142.84 8.42267 142.584 8.572C142.349 8.7 142.136 8.83867 141.944 8.988C141.773 9.13733 141.688 9.29733 141.688 9.468ZM141.688 9.468L141.656 7.772L142.808 7.164L147.544 6.94C147.48 7.23867 147.416 7.56933 147.352 7.932C147.309 8.29467 147.277 8.59333 147.256 8.828C145.848 8.91333 144.771 8.99867 144.024 9.084C143.277 9.148 142.744 9.212 142.424 9.276C142.104 9.34 141.859 9.404 141.688 9.468ZM141.912 13.852C141.848 13.596 141.731 13.2227 141.56 12.732C141.411 12.22 141.261 11.804 141.112 11.484C141.411 11.4413 141.709 11.3347 142.008 11.164C142.307 10.9933 142.627 10.7587 142.968 10.46C143.224 10.268 143.608 9.92667 144.12 9.436C144.653 8.94533 145.229 8.35867 145.848 7.676C146.467 6.99333 147.032 6.27867 147.544 5.532L150.04 6.46C149.059 7.65467 148.024 8.796 146.936 9.884C145.848 10.9507 144.781 11.836 143.736 12.54V12.572C143.736 12.572 143.64 12.6147 143.448 12.7C143.277 12.7853 143.075 12.892 142.84 13.02C142.605 13.148 142.392 13.2867 142.2 13.436C142.008 13.5853 141.912 13.724 141.912 13.852ZM141.912 13.852L141.848 12.22L143 11.548L149.56 11.004C149.475 11.2813 149.411 11.6013 149.368 11.964C149.347 12.3053 149.336 12.604 149.336 12.86C147.843 13.0093 146.637 13.1373 145.72 13.244C144.803 13.3293 144.088 13.4147 143.576 13.5C143.085 13.564 142.723 13.628 142.488 13.692C142.253 13.7347 142.061 13.788 141.912 13.852ZM144.536 14.748L146.616 14.3C146.851 14.8973 147.053 15.5587 147.224 16.284C147.416 17.0093 147.533 17.628 147.576 18.14L145.368 18.652C145.347 18.14 145.251 17.5213 145.08 16.796C144.909 16.0493 144.728 15.3667 144.536 14.748ZM141.944 14.332L144.184 14.844C144.035 15.5907 143.811 16.348 143.512 17.116C143.213 17.884 142.904 18.5453 142.584 19.1C142.349 18.9293 142.029 18.7373 141.624 18.524C141.219 18.3107 140.877 18.1507 140.6 18.044C140.941 17.5107 141.219 16.924 141.432 16.284C141.645 15.6227 141.816 14.972 141.944 14.332ZM147.64 14.364L149.464 13.788C149.763 14.3 150.029 14.8653 150.264 15.484C150.499 16.0813 150.659 16.604 150.744 17.052L148.76 17.724C148.675 17.276 148.525 16.7427 148.312 16.124C148.099 15.484 147.875 14.8973 147.64 14.364ZM153.24 3.132L155.576 2.428C155.896 2.91867 156.173 3.46267 156.408 4.06C156.664 4.636 156.845 5.148 156.952 5.596L154.456 6.396C154.371 5.948 154.211 5.42533 153.976 4.828C153.763 4.20933 153.517 3.644 153.24 3.132ZM166.296 10.076L168.248 9.404C168.632 9.98 168.984 10.62 169.304 11.324C169.645 12.0067 169.891 12.604 170.04 13.116L167.96 13.884C167.832 13.372 167.608 12.764 167.288 12.06C166.989 11.3347 166.659 10.6733 166.296 10.076ZM160.312 9.532C160.227 9.25467 160.099 8.88133 159.928 8.412C159.779 7.94267 159.64 7.55866 159.512 7.26C159.896 7.17466 160.323 6.91866 160.792 6.492C160.941 6.34267 161.165 6.08667 161.464 5.724C161.784 5.34 162.136 4.892 162.52 4.38C162.904 3.868 163.235 3.33467 163.512 2.78L165.88 3.612C165.325 4.48667 164.696 5.34 163.992 6.172C163.309 7.004 162.648 7.68667 162.008 8.22V8.252C162.008 8.252 161.869 8.32667 161.592 8.476C161.315 8.604 161.027 8.764 160.728 8.956C160.451 9.148 160.312 9.34 160.312 9.532ZM160.312 9.532L160.28 7.836L161.4 7.228L166.36 6.972C166.296 7.27066 166.232 7.60133 166.168 7.964C166.125 8.32667 166.104 8.62533 166.104 8.86C164.611 8.96667 163.469 9.06267 162.68 9.148C161.912 9.212 161.357 9.276 161.016 9.34C160.696 9.404 160.461 9.468 160.312 9.532ZM160.44 13.916C160.376 13.66 160.269 13.2867 160.12 12.796C159.971 12.3053 159.821 11.9 159.672 11.58C159.971 11.5373 160.28 11.4307 160.6 11.26C160.92 11.068 161.261 10.8227 161.624 10.524C161.88 10.3533 162.285 10.012 162.84 9.5C163.395 8.988 164.003 8.38 164.664 7.676C165.325 6.95067 165.933 6.204 166.488 5.436L168.888 6.428C167.885 7.644 166.829 8.796 165.72 9.884C164.632 10.972 163.555 11.8893 162.488 12.636V12.668C162.488 12.668 162.381 12.7107 162.168 12.796C161.976 12.86 161.741 12.956 161.464 13.084C161.208 13.212 160.973 13.3507 160.76 13.5C160.547 13.628 160.44 13.7667 160.44 13.916ZM160.44 13.916L160.408 12.252L161.56 11.58L168.6 11.004C168.557 11.3027 168.515 11.6333 168.472 11.996C168.429 12.3587 168.397 12.6467 168.376 12.86C166.776 13.0093 165.485 13.148 164.504 13.276C163.523 13.3827 162.755 13.468 162.2 13.532C161.667 13.596 161.272 13.66 161.016 13.724C160.781 13.788 160.589 13.852 160.44 13.916ZM163.352 14.652L165.464 14.204C165.677 14.8013 165.869 15.452 166.04 16.156C166.211 16.86 166.307 17.468 166.328 17.98L164.12 18.492C164.099 17.98 164.013 17.372 163.864 16.668C163.736 15.9427 163.565 15.2707 163.352 14.652ZM160.664 14.3L162.936 14.812C162.787 15.4947 162.584 16.1987 162.328 16.924C162.072 17.6493 161.805 18.268 161.528 18.78C161.293 18.6307 160.963 18.4493 160.536 18.236C160.109 18.0227 159.757 17.852 159.48 17.724C159.779 17.2333 160.024 16.6893 160.216 16.092C160.408 15.4733 160.557 14.876 160.664 14.3ZM166.552 14.332L168.44 13.756C168.739 14.3107 169.005 14.9293 169.24 15.612C169.496 16.2733 169.688 16.8387 169.816 17.308L167.8 17.98C167.715 17.4893 167.544 16.9027 167.288 16.22C167.053 15.516 166.808 14.8867 166.552 14.332Z" fill="#FFFF3C"/>
<path d="M174.944 14.5L178.262 4.126H180.712L184.03 14.5H181.846L180.376 9.096C180.217 8.55467 180.063 7.99467 179.914 7.416C179.774 6.828 179.625 6.25867 179.466 5.708H179.41C179.279 6.268 179.135 6.83733 178.976 7.416C178.827 7.99467 178.677 8.55467 178.528 9.096L177.044 14.5H174.944ZM177.002 11.84V10.23H181.93V11.84H177.002ZM187.021 14.696C186.535 14.696 186.153 14.598 185.873 14.402C185.593 14.1967 185.387 13.9167 185.257 13.562C185.135 13.198 185.075 12.778 185.075 12.302V3.328H187.133V12.386C187.133 12.6193 187.175 12.7827 187.259 12.876C187.352 12.9693 187.445 13.016 187.539 13.016C187.585 13.016 187.627 13.016 187.665 13.016C187.702 13.0067 187.753 12.9973 187.819 12.988L188.071 14.514C187.949 14.5607 187.8 14.6027 187.623 14.64C187.455 14.6773 187.254 14.696 187.021 14.696ZM189.491 14.5V6.66H191.171L191.325 7.71H191.367C191.693 7.374 192.048 7.08467 192.431 6.842C192.813 6.59 193.261 6.464 193.775 6.464C194.335 6.464 194.783 6.58533 195.119 6.828C195.464 7.06133 195.73 7.39733 195.917 7.836C196.29 7.45333 196.673 7.13133 197.065 6.87C197.466 6.59933 197.919 6.464 198.423 6.464C199.263 6.464 199.874 6.744 200.257 7.304C200.649 7.85467 200.845 8.62467 200.845 9.614V14.5H198.801V9.866C198.801 9.25933 198.712 8.83467 198.535 8.592C198.357 8.34933 198.082 8.228 197.709 8.228C197.485 8.228 197.247 8.30267 196.995 8.452C196.752 8.592 196.486 8.81133 196.197 9.11V14.5H194.139V9.866C194.139 9.25933 194.05 8.83467 193.873 8.592C193.695 8.34933 193.42 8.228 193.047 8.228C192.832 8.228 192.594 8.30267 192.333 8.452C192.081 8.592 191.819 8.81133 191.549 9.11V14.5H189.491ZM206.261 14.696C205.608 14.696 204.992 14.5327 204.413 14.206C203.844 13.8793 203.382 13.4127 203.027 12.806C202.672 12.19 202.495 11.448 202.495 10.58C202.495 9.712 202.672 8.97467 203.027 8.368C203.382 7.752 203.844 7.28067 204.413 6.954C204.992 6.62733 205.608 6.464 206.261 6.464C206.756 6.464 207.227 6.55733 207.675 6.744C208.123 6.93067 208.524 7.20133 208.879 7.556C209.234 7.90133 209.514 8.33067 209.719 8.844C209.924 9.348 210.027 9.92667 210.027 10.58C210.027 11.448 209.85 12.19 209.495 12.806C209.14 13.4127 208.674 13.8793 208.095 14.206C207.526 14.5327 206.914 14.696 206.261 14.696ZM206.261 13.016C206.616 13.016 206.914 12.918 207.157 12.722C207.409 12.5167 207.596 12.232 207.717 11.868C207.848 11.504 207.913 11.0747 207.913 10.58C207.913 10.0853 207.848 9.656 207.717 9.292C207.596 8.928 207.409 8.648 207.157 8.452C206.914 8.24667 206.616 8.144 206.261 8.144C205.906 8.144 205.603 8.24667 205.351 8.452C205.108 8.648 204.922 8.928 204.791 9.292C204.67 9.656 204.609 10.0853 204.609 10.58C204.609 11.0747 204.67 11.504 204.791 11.868C204.922 12.232 205.108 12.5167 205.351 12.722C205.603 12.918 205.906 13.016 206.261 13.016ZM213.852 14.696C213.329 14.696 212.797 14.5933 212.256 14.388C211.724 14.1827 211.262 13.9213 210.87 13.604L211.808 12.302C212.153 12.5633 212.494 12.7733 212.83 12.932C213.175 13.0813 213.535 13.156 213.908 13.156C214.3 13.156 214.585 13.0813 214.762 12.932C214.949 12.7733 215.042 12.5727 215.042 12.33C215.042 12.134 214.963 11.9707 214.804 11.84C214.645 11.7 214.44 11.5787 214.188 11.476C213.936 11.364 213.675 11.2567 213.404 11.154C213.077 11.0233 212.751 10.8647 212.424 10.678C212.107 10.4913 211.841 10.2533 211.626 9.964C211.411 9.66533 211.304 9.29667 211.304 8.858C211.304 8.39133 211.425 7.98067 211.668 7.626C211.911 7.262 212.247 6.97733 212.676 6.772C213.115 6.56667 213.633 6.464 214.23 6.464C214.799 6.464 215.303 6.562 215.742 6.758C216.19 6.954 216.573 7.178 216.89 7.43L215.966 8.676C215.686 8.47067 215.406 8.30733 215.126 8.186C214.855 8.06467 214.575 8.004 214.286 8.004C213.922 8.004 213.656 8.074 213.488 8.214C213.32 8.354 213.236 8.536 213.236 8.76C213.236 8.94667 213.306 9.10533 213.446 9.236C213.586 9.35733 213.777 9.46467 214.02 9.558C214.263 9.65133 214.519 9.74933 214.79 9.852C215.051 9.94533 215.308 10.0573 215.56 10.188C215.821 10.3093 216.059 10.4587 216.274 10.636C216.489 10.8133 216.657 11.0327 216.778 11.294C216.909 11.546 216.974 11.854 216.974 12.218C216.974 12.6753 216.853 13.0953 216.61 13.478C216.377 13.8513 216.027 14.15 215.56 14.374C215.103 14.5887 214.533 14.696 213.852 14.696ZM221.017 14.696C220.401 14.696 219.902 14.5747 219.519 14.332C219.136 14.08 218.861 13.7347 218.693 13.296C218.525 12.8573 218.441 12.3487 218.441 11.77V8.284H217.335V6.758L218.553 6.66L218.791 4.546H220.485V6.66H222.431V8.284H220.485V11.756C220.485 12.204 220.578 12.5353 220.765 12.75C220.952 12.9647 221.218 13.072 221.563 13.072C221.694 13.072 221.829 13.0533 221.969 13.016C222.109 12.9787 222.23 12.9413 222.333 12.904L222.683 14.402C222.468 14.4673 222.221 14.5327 221.941 14.598C221.67 14.6633 221.362 14.696 221.017 14.696ZM178.332 30.5V21.862H175.42V20.126H183.33V21.862H180.404V30.5H178.332ZM184.856 30.5V19.328H186.914V22.142L186.816 23.612C187.124 23.3133 187.479 23.0473 187.88 22.814C188.281 22.5807 188.748 22.464 189.28 22.464C190.129 22.464 190.745 22.744 191.128 23.304C191.511 23.8547 191.702 24.6247 191.702 25.614V30.5H189.644V25.866C189.644 25.2593 189.555 24.8347 189.378 24.592C189.21 24.3493 188.93 24.228 188.538 24.228C188.221 24.228 187.941 24.3027 187.698 24.452C187.465 24.6013 187.203 24.8207 186.914 25.11V30.5H184.856ZM197.227 30.696C196.499 30.696 195.841 30.5327 195.253 30.206C194.665 29.8793 194.194 29.408 193.839 28.792C193.494 28.176 193.321 27.4387 193.321 26.58C193.321 25.9453 193.419 25.376 193.615 24.872C193.82 24.368 194.096 23.9387 194.441 23.584C194.796 23.22 195.188 22.9447 195.617 22.758C196.056 22.562 196.508 22.464 196.975 22.464C197.694 22.464 198.296 22.6273 198.781 22.954C199.266 23.2713 199.63 23.7147 199.873 24.284C200.125 24.844 200.251 25.488 200.251 26.216C200.251 26.4027 200.242 26.5847 200.223 26.762C200.204 26.93 200.181 27.0653 200.153 27.168H195.323C195.379 27.588 195.505 27.9427 195.701 28.232C195.897 28.5213 196.149 28.7407 196.457 28.89C196.765 29.03 197.115 29.1 197.507 29.1C197.824 29.1 198.123 29.058 198.403 28.974C198.683 28.8807 198.968 28.7453 199.257 28.568L199.957 29.828C199.574 30.0893 199.145 30.2993 198.669 30.458C198.193 30.6167 197.712 30.696 197.227 30.696ZM195.281 25.782H198.487C198.487 25.2593 198.366 24.844 198.123 24.536C197.89 24.2187 197.516 24.06 197.003 24.06C196.732 24.06 196.476 24.1253 196.233 24.256C195.99 24.3773 195.785 24.5687 195.617 24.83C195.449 25.082 195.337 25.3993 195.281 25.782ZM201.946 30.5V22.66H203.626L203.78 24.046H203.822C204.111 23.5327 204.452 23.1407 204.844 22.87C205.236 22.5993 205.637 22.464 206.048 22.464C206.272 22.464 206.449 22.4827 206.58 22.52C206.72 22.548 206.846 22.5853 206.958 22.632L206.622 24.41C206.473 24.3727 206.337 24.3447 206.216 24.326C206.104 24.298 205.959 24.284 205.782 24.284C205.483 24.284 205.166 24.4007 204.83 24.634C204.503 24.8673 204.228 25.264 204.004 25.824V30.5H201.946ZM211.241 30.696C210.513 30.696 209.855 30.5327 209.267 30.206C208.679 29.8793 208.207 29.408 207.853 28.792C207.507 28.176 207.335 27.4387 207.335 26.58C207.335 25.9453 207.433 25.376 207.629 24.872C207.834 24.368 208.109 23.9387 208.455 23.584C208.809 23.22 209.201 22.9447 209.631 22.758C210.069 22.562 210.522 22.464 210.989 22.464C211.707 22.464 212.309 22.6273 212.795 22.954C213.28 23.2713 213.644 23.7147 213.887 24.284C214.139 24.844 214.265 25.488 214.265 26.216C214.265 26.4027 214.255 26.5847 214.237 26.762C214.218 26.93 214.195 27.0653 214.167 27.168H209.337C209.393 27.588 209.519 27.9427 209.715 28.232C209.911 28.5213 210.163 28.7407 210.471 28.89C210.779 29.03 211.129 29.1 211.521 29.1C211.838 29.1 212.137 29.058 212.417 28.974C212.697 28.8807 212.981 28.7453 213.271 28.568L213.971 29.828C213.588 30.0893 213.159 30.2993 212.683 30.458C212.207 30.6167 211.726 30.696 211.241 30.696ZM209.295 25.782H212.501C212.501 25.2593 212.379 24.844 212.137 24.536C211.903 24.2187 211.53 24.06 211.017 24.06C210.746 24.06 210.489 24.1253 210.247 24.256C210.004 24.3773 209.799 24.5687 209.631 24.83C209.463 25.082 209.351 25.3993 209.295 25.782Z" fill="#FFFF3C"/>
</svg>
