<svg width="87" height="87" viewBox="0 0 87 87" fill="none" xmlns="http://www.w3.org/2000/svg">
<path fill-rule="evenodd" clip-rule="evenodd" d="M86.5633 13.435C86.9538 13.8256 86.9538 14.4587 86.5633 14.8492L78.8263 22.5862L64.6842 8.44409L72.4212 0.707108C72.8117 0.316583 73.4449 0.316583 73.8354 0.707107L86.5633 13.435ZM61.1487 11.9796L33.3333 39.795L33.3333 39.7951L33.3333 39.7951L28.8102 57.2413C28.6188 57.9795 29.291 58.6517 30.0292 58.4603L47.2118 54.0055C47.3844 53.9608 47.5419 53.8707 47.6679 53.7446L75.2908 26.1218L61.1487 11.9796Z" fill="#F0F0F0"/>
<path fill-rule="evenodd" clip-rule="evenodd" d="M44.0959 0H12.5567C5.62182 0 0 5.62183 0 12.5567V74.4433C0 81.3782 5.62183 87 12.5567 87H74.4433C81.3782 87 87 81.3782 87 74.4433V43.5H78.0309V74.4433C78.0309 76.4247 76.4247 78.0309 74.4433 78.0309H12.5567C10.5753 78.0309 8.96907 76.4247 8.96907 74.4433V12.5567C8.96907 10.5753 10.5753 8.96907 12.5567 8.96907H44.0959V0Z" fill="#F0F0F0"/>
</svg>
