<svg width="88" height="88" viewBox="0 0 88 88" fill="none" xmlns="http://www.w3.org/2000/svg">
<path fill-rule="evenodd" clip-rule="evenodd" d="M87.5633 13.435C87.9538 13.8256 87.9538 14.4587 87.5633 14.8492L79.8263 22.5862L65.6842 8.44409L73.4212 0.707108C73.8117 0.316583 74.4449 0.316583 74.8354 0.707107L87.5633 13.435ZM62.1487 11.9796L34.3333 39.795L34.3333 39.7951L34.3333 39.7951L29.8102 57.2413C29.6188 57.9795 30.291 58.6517 31.0292 58.4603L48.2118 54.0055C48.3844 53.9608 48.5419 53.8707 48.6679 53.7446L76.2908 26.1218L62.1487 11.9796Z" fill="#F0F0F0"/>
<path fill-rule="evenodd" clip-rule="evenodd" d="M45.0548 3H15.6907C9.23411 3 4 8.23412 4 14.6907V72.3093C4 78.7659 9.23412 84 15.6907 84H73.3093C79.7659 84 85 78.7659 85 72.3093V43.5H76.6495V72.3093C76.6495 74.154 75.154 75.6495 73.3093 75.6495H15.6907C13.846 75.6495 12.3505 74.154 12.3505 72.3093V14.6907C12.3505 12.846 13.846 11.3505 15.6907 11.3505H45.0548V3Z" fill="#F0F0F0"/>
</svg>
